<?xml version="1.0" encoding="utf-8" standalone="no"?>
<!DOCTYPE svg PUBLIC "-//W3C//DTD SVG 1.1//EN"
  "http://www.w3.org/Graphics/SVG/1.1/DTD/svg11.dtd">
<svg xmlns:xlink="http://www.w3.org/1999/xlink" width="910.08pt" height="506.88pt" viewBox="0 0 910.08 506.88" xmlns="http://www.w3.org/2000/svg" version="1.1">
 <metadata>
  <rdf:RDF xmlns:dc="http://purl.org/dc/elements/1.1/" xmlns:cc="http://creativecommons.org/ns#" xmlns:rdf="http://www.w3.org/1999/02/22-rdf-syntax-ns#">
   <cc:Work>
    <dc:type rdf:resource="http://purl.org/dc/dcmitype/StillImage"/>
    <dc:date>2026-02-15T21:31:18.333513</dc:date>
    <dc:format>image/svg+xml</dc:format>
    <dc:creator>
     <cc:Agent>
      <dc:title>Matplotlib v3.10.1, https://matplotlib.org/</dc:title>
     </cc:Agent>
    </dc:creator>
   </cc:Work>
  </rdf:RDF>
 </metadata>
 <defs>
  <style type="text/css">*{stroke-linejoin: round; stroke-linecap: butt}</style>
 </defs>
 <g id="figure_1">
  <g id="patch_1">
   <path d="M 0 506.88 
L 910.08 506.88 
L 910.08 0 
L 0 0 
z
" style="fill: #ffffff"/>
  </g>
  <g id="axes_1">
   <g id="patch_2">
    <path d="M 382.589141 139.483027 
Q 417.174343 115.107713 439.240448 81.386277 
" clip-path="url(#p0b5bee55cb)" style="fill: none; stroke: #333333; stroke-width: 1.8; stroke-linecap: round"/>
    <path d="M 434.603943 84.088651 
L 439.240448 81.386277 
L 438.620443 86.716905 
" clip-path="url(#p0b5bee55cb)" style="fill: none; stroke: #333333; stroke-width: 1.8; stroke-linecap: round"/>
   </g>
   <g id="patch_3">
    <path d="M 527.490859 139.483027 
Q 492.905657 115.107713 470.839552 81.386277 
" clip-path="url(#p0b5bee55cb)" style="fill: none; stroke: #333333; stroke-width: 1.8; stroke-linecap: round"/>
    <path d="M 471.459557 86.716905 
L 470.839552 81.386277 
L 475.476057 84.088651 
" clip-path="url(#p0b5bee55cb)" style="fill: none; stroke: #333333; stroke-width: 1.8; stroke-linecap: round"/>
   </g>
   <g id="patch_4">
    <path d="M 294.887141 230.262751 
Q 329.472343 205.887436 351.538448 172.166001 
" clip-path="url(#p0b5bee55cb)" style="fill: none; stroke: #333333; stroke-width: 1.8; stroke-linecap: round"/>
    <path d="M 346.901943 174.868374 
L 351.538448 172.166001 
L 350.918443 177.496629 
" clip-path="url(#p0b5bee55cb)" style="fill: none; stroke: #333333; stroke-width: 1.8; stroke-linecap: round"/>
   </g>
   <g id="patch_5">
    <path d="M 470.291141 230.262751 
Q 504.876343 205.887436 526.942448 172.166001 
" clip-path="url(#p0b5bee55cb)" style="fill: none; stroke: #333333; stroke-width: 1.8; stroke-linecap: round"/>
    <path d="M 522.305943 174.868374 
L 526.942448 172.166001 
L 526.322443 177.496629 
" clip-path="url(#p0b5bee55cb)" style="fill: none; stroke: #333333; stroke-width: 1.8; stroke-linecap: round"/>
   </g>
   <g id="patch_6">
    <path d="M 439.788859 230.262751 
Q 405.203657 205.887436 383.137552 172.166001 
" clip-path="url(#p0b5bee55cb)" style="fill: none; stroke: #333333; stroke-width: 1.8; stroke-linecap: round"/>
    <path d="M 383.757557 177.496629 
L 383.137552 172.166001 
L 387.774057 174.868374 
" clip-path="url(#p0b5bee55cb)" style="fill: none; stroke: #333333; stroke-width: 1.8; stroke-linecap: round"/>
   </g>
   <g id="patch_7">
    <path d="M 615.192859 230.262751 
Q 580.607657 205.887436 558.541552 172.166001 
" clip-path="url(#p0b5bee55cb)" style="fill: none; stroke: #333333; stroke-width: 1.8; stroke-linecap: round"/>
    <path d="M 559.161557 177.496629 
L 558.541552 172.166001 
L 563.178057 174.868374 
" clip-path="url(#p0b5bee55cb)" style="fill: none; stroke: #333333; stroke-width: 1.8; stroke-linecap: round"/>
   </g>
   <g id="patch_8">
    <path d="M 207.185141 321.042474 
Q 241.770343 296.66716 263.836448 262.945724 
" clip-path="url(#p0b5bee55cb)" style="fill: none; stroke: #333333; stroke-width: 1.8; stroke-linecap: round"/>
    <path d="M 259.199943 265.648098 
L 263.836448 262.945724 
L 263.216443 268.276352 
" clip-path="url(#p0b5bee55cb)" style="fill: none; stroke: #333333; stroke-width: 1.8; stroke-linecap: round"/>
   </g>
   <g id="patch_9">
    <path d="M 382.589141 321.042474 
Q 417.174343 296.66716 439.240448 262.945724 
" clip-path="url(#p0b5bee55cb)" style="fill: none; stroke: #333333; stroke-width: 1.8; stroke-linecap: round"/>
    <path d="M 434.603943 265.648098 
L 439.240448 262.945724 
L 438.620443 268.276352 
" clip-path="url(#p0b5bee55cb)" style="fill: none; stroke: #333333; stroke-width: 1.8; stroke-linecap: round"/>
   </g>
   <g id="patch_10">
    <path d="M 352.086859 321.042474 
Q 317.501657 296.66716 295.435552 262.945724 
" clip-path="url(#p0b5bee55cb)" style="fill: none; stroke: #333333; stroke-width: 1.8; stroke-linecap: round"/>
    <path d="M 296.055557 268.276352 
L 295.435552 262.945724 
L 300.072057 265.648098 
" clip-path="url(#p0b5bee55cb)" style="fill: none; stroke: #333333; stroke-width: 1.8; stroke-linecap: round"/>
   </g>
   <g id="patch_11">
    <path d="M 557.993141 321.042474 
Q 592.578343 296.66716 614.644448 262.945724 
" clip-path="url(#p0b5bee55cb)" style="fill: none; stroke: #333333; stroke-width: 1.8; stroke-linecap: round"/>
    <path d="M 610.007943 265.648098 
L 614.644448 262.945724 
L 614.024443 268.276352 
" clip-path="url(#p0b5bee55cb)" style="fill: none; stroke: #333333; stroke-width: 1.8; stroke-linecap: round"/>
   </g>
   <g id="patch_12">
    <path d="M 527.490859 321.042474 
Q 492.905657 296.66716 470.839552 262.945724 
" clip-path="url(#p0b5bee55cb)" style="fill: none; stroke: #333333; stroke-width: 1.8; stroke-linecap: round"/>
    <path d="M 471.459557 268.276352 
L 470.839552 262.945724 
L 475.476057 265.648098 
" clip-path="url(#p0b5bee55cb)" style="fill: none; stroke: #333333; stroke-width: 1.8; stroke-linecap: round"/>
   </g>
   <g id="patch_13">
    <path d="M 702.894859 321.042474 
Q 668.309657 296.66716 646.243552 262.945724 
" clip-path="url(#p0b5bee55cb)" style="fill: none; stroke: #333333; stroke-width: 1.8; stroke-linecap: round"/>
    <path d="M 646.863557 268.276352 
L 646.243552 262.945724 
L 650.880057 265.648098 
" clip-path="url(#p0b5bee55cb)" style="fill: none; stroke: #333333; stroke-width: 1.8; stroke-linecap: round"/>
   </g>
   <g id="patch_14">
    <path d="M 164.937327 409.24156 
Q 175.139428 381.667905 184.643196 355.981665 
" clip-path="url(#p0b5bee55cb)" style="fill: none; stroke: #333333; stroke-width: 1.8; stroke-linecap: round"/>
    <path d="M 180.726703 359.650599 
L 184.643196 355.981665 
L 185.228448 361.31622 
" clip-path="url(#p0b5bee55cb)" style="fill: none; stroke: #333333; stroke-width: 1.8; stroke-linecap: round"/>
   </g>
   <g id="patch_15">
    <path d="M 182.191741 417.280412 
Q 272.678542 404.313365 342.348379 348.293445 
" clip-path="url(#p0b5bee55cb)" style="fill: none; stroke: #333333; stroke-width: 1.8; stroke-linecap: round"/>
    <path d="M 337.103746 349.430912 
L 342.348379 348.293445 
L 340.111573 353.171631 
" clip-path="url(#p0b5bee55cb)" style="fill: none; stroke: #333333; stroke-width: 1.8; stroke-linecap: round"/>
   </g>
   <g id="patch_16">
    <path d="M 727.888259 417.280412 
Q 637.401458 404.313365 567.731621 348.293445 
" clip-path="url(#p0b5bee55cb)" style="fill: none; stroke: #333333; stroke-width: 1.8; stroke-linecap: round"/>
    <path d="M 569.968427 353.171631 
L 567.731621 348.293445 
L 572.976254 349.430912 
" clip-path="url(#p0b5bee55cb)" style="fill: none; stroke: #333333; stroke-width: 1.8; stroke-linecap: round"/>
   </g>
   <g id="patch_17">
    <path d="M 745.142673 409.24156 
Q 734.940572 381.667905 725.436804 355.981665 
" clip-path="url(#p0b5bee55cb)" style="fill: none; stroke: #333333; stroke-width: 1.8; stroke-linecap: round"/>
    <path d="M 724.851552 361.31622 
L 725.436804 355.981665 
L 729.353297 359.650599 
" clip-path="url(#p0b5bee55cb)" style="fill: none; stroke: #333333; stroke-width: 1.8; stroke-linecap: round"/>
   </g>
   <g id="patch_18">
    <path d="M 334.283098 415.738056 
Q 261.979412 403.479336 214.484635 350.270171 
" clip-path="url(#p0b5bee55cb)" style="fill: none; stroke: #333333; stroke-width: 1.8; stroke-linecap: round"/>
    <path d="M 215.890534 355.449307 
L 214.484635 350.270171 
L 219.471483 352.252933 
" clip-path="url(#p0b5bee55cb)" style="fill: none; stroke: #333333; stroke-width: 1.8; stroke-linecap: round"/>
   </g>
   <g id="patch_19">
    <path d="M 358.396496 408.776252 
Q 361.739946 381.666795 364.837063 356.554666 
" clip-path="url(#p0b5bee55cb)" style="fill: none; stroke: #333333; stroke-width: 1.8; stroke-linecap: round"/>
    <path d="M 361.86757 361.024802 
L 364.837063 356.554666 
L 366.631476 361.612342 
" clip-path="url(#p0b5bee55cb)" style="fill: none; stroke: #333333; stroke-width: 1.8; stroke-linecap: round"/>
   </g>
   <g id="patch_20">
    <path d="M 379.10999 416.627232 
Q 461.813401 407.098627 518.943094 349.342436 
" clip-path="url(#p0b5bee55cb)" style="fill: none; stroke: #333333; stroke-width: 1.8; stroke-linecap: round"/>
    <path d="M 513.861255 351.06723 
L 518.943094 349.342436 
L 517.273825 354.442783 
" clip-path="url(#p0b5bee55cb)" style="fill: none; stroke: #333333; stroke-width: 1.8; stroke-linecap: round"/>
   </g>
   <g id="patch_21">
    <path d="M 530.97001 416.627232 
Q 448.266599 407.098627 391.136906 349.342436 
" clip-path="url(#p0b5bee55cb)" style="fill: none; stroke: #333333; stroke-width: 1.8; stroke-linecap: round"/>
    <path d="M 392.806175 354.442783 
L 391.136906 349.342436 
L 396.218745 351.06723 
" clip-path="url(#p0b5bee55cb)" style="fill: none; stroke: #333333; stroke-width: 1.8; stroke-linecap: round"/>
   </g>
   <g id="patch_22">
    <path d="M 551.683504 408.776252 
Q 548.340054 381.666795 545.242937 356.554666 
" clip-path="url(#p0b5bee55cb)" style="fill: none; stroke: #333333; stroke-width: 1.8; stroke-linecap: round"/>
    <path d="M 543.448524 361.612342 
L 545.242937 356.554666 
L 548.21243 361.024802 
" clip-path="url(#p0b5bee55cb)" style="fill: none; stroke: #333333; stroke-width: 1.8; stroke-linecap: round"/>
   </g>
   <g id="patch_23">
    <path d="M 575.796902 415.738056 
Q 648.100588 403.479336 695.595365 350.270171 
" clip-path="url(#p0b5bee55cb)" style="fill: none; stroke: #333333; stroke-width: 1.8; stroke-linecap: round"/>
    <path d="M 690.608517 352.252933 
L 695.595365 350.270171 
L 694.189466 355.449307 
" clip-path="url(#p0b5bee55cb)" style="fill: none; stroke: #333333; stroke-width: 1.8; stroke-linecap: round"/>
   </g>
   <g id="text_1">
    <!-- 0 -->
    <g style="fill: #111111" transform="translate(26.876 68.352327) scale(0.16 -0.16)">
     <defs>
      <path id="DejaVuSerif-30" d="M 2034 219 
Q 2513 219 2750 744 
Q 2988 1269 2988 2328 
Q 2988 3391 2750 3916 
Q 2513 4441 2034 4441 
Q 1556 4441 1318 3916 
Q 1081 3391 1081 2328 
Q 1081 1269 1318 744 
Q 1556 219 2034 219 
z
M 2034 -91 
Q 1275 -91 848 546 
Q 422 1184 422 2328 
Q 422 3475 848 4112 
Q 1275 4750 2034 4750 
Q 2797 4750 3222 4112 
Q 3647 3475 3647 2328 
Q 3647 1184 3222 546 
Q 2797 -91 2034 -91 
z
" transform="scale(0.015625)"/>
     </defs>
     <use xlink:href="#DejaVuSerif-30"/>
    </g>
   </g>
   <g id="text_2">
    <!-- 1 -->
    <g style="fill: #111111" transform="translate(26.876 159.132051) scale(0.16 -0.16)">
     <defs>
      <path id="DejaVuSerif-31" d="M 909 0 
L 909 331 
L 1722 331 
L 1722 4213 
L 781 3603 
L 781 4013 
L 1919 4750 
L 2350 4750 
L 2350 331 
L 3163 331 
L 3163 0 
L 909 0 
z
" transform="scale(0.015625)"/>
     </defs>
     <use xlink:href="#DejaVuSerif-31"/>
    </g>
   </g>
   <g id="text_3">
    <!-- 2 -->
    <g style="fill: #111111" transform="translate(26.876 249.911774) scale(0.16 -0.16)">
     <defs>
      <path id="DejaVuSerif-32" d="M 819 3553 
L 469 3553 
L 469 4384 
Q 803 4563 1142 4656 
Q 1481 4750 1806 4750 
Q 2534 4750 2956 4397 
Q 3378 4044 3378 3438 
Q 3378 2753 2422 1800 
Q 2347 1728 2309 1691 
L 1131 513 
L 3078 513 
L 3078 1088 
L 3444 1088 
L 3444 0 
L 434 0 
L 434 341 
L 1850 1753 
Q 2319 2222 2519 2614 
Q 2719 3006 2719 3438 
Q 2719 3909 2473 4175 
Q 2228 4441 1797 4441 
Q 1350 4441 1106 4219 
Q 863 3997 819 3553 
z
" transform="scale(0.015625)"/>
     </defs>
     <use xlink:href="#DejaVuSerif-32"/>
    </g>
   </g>
   <g id="text_4">
    <!-- 3 -->
    <g style="fill: #111111" transform="translate(26.876 340.691498) scale(0.16 -0.16)">
     <defs>
      <path id="DejaVuSerif-33" d="M 622 4469 
Q 988 4606 1323 4678 
Q 1659 4750 1953 4750 
Q 2638 4750 3022 4454 
Q 3406 4159 3406 3634 
Q 3406 3213 3140 2930 
Q 2875 2647 2388 2547 
Q 2963 2466 3280 2130 
Q 3597 1794 3597 1259 
Q 3597 606 3158 257 
Q 2719 -91 1894 -91 
Q 1528 -91 1179 -12 
Q 831 66 488 225 
L 488 1131 
L 838 1131 
Q 869 681 1141 450 
Q 1413 219 1906 219 
Q 2384 219 2661 495 
Q 2938 772 2938 1253 
Q 2938 1803 2653 2086 
Q 2369 2369 1819 2369 
L 1522 2369 
L 1522 2688 
L 1678 2688 
Q 2225 2688 2498 2914 
Q 2772 3141 2772 3597 
Q 2772 4006 2547 4223 
Q 2322 4441 1900 4441 
Q 1478 4441 1245 4241 
Q 1013 4041 972 3647 
L 622 3647 
L 622 4469 
z
" transform="scale(0.015625)"/>
     </defs>
     <use xlink:href="#DejaVuSerif-33"/>
    </g>
   </g>
   <g id="text_5">
    <!-- 4 -->
    <g style="fill: #111111" transform="translate(26.876 431.471221) scale(0.16 -0.16)">
     <defs>
      <path id="DejaVuSerif-34" d="M 2234 1581 
L 2234 4063 
L 641 1581 
L 2234 1581 
z
M 3609 0 
L 1484 0 
L 1484 331 
L 2234 331 
L 2234 1247 
L 197 1247 
L 197 1588 
L 2241 4750 
L 2859 4750 
L 2859 1581 
L 3750 1581 
L 3750 1247 
L 2859 1247 
L 2859 331 
L 3609 331 
L 3609 0 
z
" transform="scale(0.015625)"/>
     </defs>
     <use xlink:href="#DejaVuSerif-34"/>
    </g>
   </g>
   <g id="patch_24">
    <path d="M 421.0788 79.36988 
L 489.0012 79.36988 
Q 500.1972 79.36988 500.1972 72.561401 
L 500.1972 55.313253 
Q 500.1972 48.504774 489.0012 48.504774 
L 421.0788 48.504774 
Q 409.8828 48.504774 409.8828 55.313253 
L 409.8828 72.561401 
Q 409.8828 79.36988 421.0788 79.36988 
z
" clip-path="url(#p0b5bee55cb)" style="fill: #a7d7ff; stroke: #648199; stroke-width: 2; stroke-linejoin: miter"/>
   </g>
   <g id="patch_25">
    <path d="M 333.3768 170.149604 
L 401.2992 170.149604 
Q 412.4952 170.149604 412.4952 163.341124 
L 412.4952 146.092977 
Q 412.4952 139.284498 401.2992 139.284498 
L 333.3768 139.284498 
Q 322.1808 139.284498 322.1808 146.092977 
L 322.1808 163.341124 
Q 322.1808 170.149604 333.3768 170.149604 
z
" clip-path="url(#p0b5bee55cb)" style="fill: #7fe5de; stroke: #4c8985; stroke-width: 2; stroke-linejoin: miter"/>
   </g>
   <g id="patch_26">
    <path d="M 508.7808 170.149604 
L 576.7032 170.149604 
Q 587.8992 170.149604 587.8992 163.341124 
L 587.8992 146.092977 
Q 587.8992 139.284498 576.7032 139.284498 
L 508.7808 139.284498 
Q 497.5848 139.284498 497.5848 146.092977 
L 497.5848 163.341124 
Q 497.5848 170.149604 508.7808 170.149604 
z
" clip-path="url(#p0b5bee55cb)" style="fill: #7fe5de; stroke: #4c8985; stroke-width: 2; stroke-linejoin: miter"/>
   </g>
   <g id="patch_27">
    <path d="M 245.6748 260.929327 
L 313.5972 260.929327 
Q 324.7932 260.929327 324.7932 254.120848 
L 324.7932 236.8727 
Q 324.7932 230.064221 313.5972 230.064221 
L 245.6748 230.064221 
Q 234.4788 230.064221 234.4788 236.8727 
L 234.4788 254.120848 
Q 234.4788 260.929327 245.6748 260.929327 
z
" clip-path="url(#p0b5bee55cb)" style="fill: #c7a6ff; stroke: #776499; stroke-width: 2; stroke-linejoin: miter"/>
   </g>
   <g id="patch_28">
    <path d="M 421.0788 260.929327 
L 489.0012 260.929327 
Q 500.1972 260.929327 500.1972 254.120848 
L 500.1972 236.8727 
Q 500.1972 230.064221 489.0012 230.064221 
L 421.0788 230.064221 
Q 409.8828 230.064221 409.8828 236.8727 
L 409.8828 254.120848 
Q 409.8828 260.929327 421.0788 260.929327 
z
" clip-path="url(#p0b5bee55cb)" style="fill: #c7a6ff; stroke: #776499; stroke-width: 2; stroke-linejoin: miter"/>
   </g>
   <g id="patch_29">
    <path d="M 596.4828 260.929327 
L 664.4052 260.929327 
Q 675.6012 260.929327 675.6012 254.120848 
L 675.6012 236.8727 
Q 675.6012 230.064221 664.4052 230.064221 
L 596.4828 230.064221 
Q 585.2868 230.064221 585.2868 236.8727 
L 585.2868 254.120848 
Q 585.2868 260.929327 596.4828 260.929327 
z
" clip-path="url(#p0b5bee55cb)" style="fill: #c7a6ff; stroke: #776499; stroke-width: 2; stroke-linejoin: miter"/>
   </g>
   <g id="patch_30">
    <path d="M 157.9728 351.709051 
L 225.8952 351.709051 
Q 237.0912 351.709051 237.0912 344.900571 
L 237.0912 327.652424 
Q 237.0912 320.843945 225.8952 320.843945 
L 157.9728 320.843945 
Q 146.7768 320.843945 146.7768 327.652424 
L 146.7768 344.900571 
Q 146.7768 351.709051 157.9728 351.709051 
z
" clip-path="url(#p0b5bee55cb)" style="fill: #ffbe7a; stroke: #997249; stroke-width: 2; stroke-linejoin: miter"/>
   </g>
   <g id="patch_31">
    <path d="M 333.3768 351.709051 
L 401.2992 351.709051 
Q 412.4952 351.709051 412.4952 344.900571 
L 412.4952 327.652424 
Q 412.4952 320.843945 401.2992 320.843945 
L 333.3768 320.843945 
Q 322.1808 320.843945 322.1808 327.652424 
L 322.1808 344.900571 
Q 322.1808 351.709051 333.3768 351.709051 
z
" clip-path="url(#p0b5bee55cb)" style="fill: #ffbe7a; stroke: #997249; stroke-width: 2; stroke-linejoin: miter"/>
   </g>
   <g id="patch_32">
    <path d="M 508.7808 351.709051 
L 576.7032 351.709051 
Q 587.8992 351.709051 587.8992 344.900571 
L 587.8992 327.652424 
Q 587.8992 320.843945 576.7032 320.843945 
L 508.7808 320.843945 
Q 497.5848 320.843945 497.5848 327.652424 
L 497.5848 344.900571 
Q 497.5848 351.709051 508.7808 351.709051 
z
" clip-path="url(#p0b5bee55cb)" style="fill: #ffbe7a; stroke: #997249; stroke-width: 2; stroke-linejoin: miter"/>
   </g>
   <g id="patch_33">
    <path d="M 684.1848 351.709051 
L 752.1072 351.709051 
Q 763.3032 351.709051 763.3032 344.900571 
L 763.3032 327.652424 
Q 763.3032 320.843945 752.1072 320.843945 
L 684.1848 320.843945 
Q 672.9888 320.843945 672.9888 327.652424 
L 672.9888 344.900571 
Q 672.9888 351.709051 684.1848 351.709051 
z
" clip-path="url(#p0b5bee55cb)" style="fill: #ffbe7a; stroke: #997249; stroke-width: 2; stroke-linejoin: miter"/>
   </g>
   <g id="patch_34">
    <path d="M 116.9208 442.488774 
L 199.7712 442.488774 
Q 210.9672 442.488774 210.9672 435.680295 
L 210.9672 418.432147 
Q 210.9672 411.623668 199.7712 411.623668 
L 116.9208 411.623668 
Q 105.7248 411.623668 105.7248 418.432147 
L 105.7248 435.680295 
Q 105.7248 442.488774 116.9208 442.488774 
z
" clip-path="url(#p0b5bee55cb)" style="fill: #ff9db7; stroke: #995e6e; stroke-width: 2; stroke-linejoin: miter"/>
   </g>
   <g id="patch_35">
    <path d="M 314.7168 442.488774 
L 397.5672 442.488774 
Q 408.7632 442.488774 408.7632 435.680295 
L 408.7632 418.432147 
Q 408.7632 411.623668 397.5672 411.623668 
L 314.7168 411.623668 
Q 303.5208 411.623668 303.5208 418.432147 
L 303.5208 435.680295 
Q 303.5208 442.488774 314.7168 442.488774 
z
" clip-path="url(#p0b5bee55cb)" style="fill: #ff9db7; stroke: #995e6e; stroke-width: 2; stroke-linejoin: miter"/>
   </g>
   <g id="patch_36">
    <path d="M 512.5128 442.488774 
L 595.3632 442.488774 
Q 606.5592 442.488774 606.5592 435.680295 
L 606.5592 418.432147 
Q 606.5592 411.623668 595.3632 411.623668 
L 512.5128 411.623668 
Q 501.3168 411.623668 501.3168 418.432147 
L 501.3168 435.680295 
Q 501.3168 442.488774 512.5128 442.488774 
z
" clip-path="url(#p0b5bee55cb)" style="fill: #ff9db7; stroke: #995e6e; stroke-width: 2; stroke-linejoin: miter"/>
   </g>
   <g id="patch_37">
    <path d="M 710.3088 442.488774 
L 793.1592 442.488774 
Q 804.3552 442.488774 804.3552 435.680295 
L 804.3552 418.432147 
Q 804.3552 411.623668 793.1592 411.623668 
L 710.3088 411.623668 
Q 699.1128 411.623668 699.1128 418.432147 
L 699.1128 435.680295 
Q 699.1128 442.488774 710.3088 442.488774 
z
" clip-path="url(#p0b5bee55cb)" style="fill: #ff9db7; stroke: #995e6e; stroke-width: 2; stroke-linejoin: miter"/>
   </g>
   <g id="text_6">
    <!-- 00 -->
    <g transform="translate(444.86 68.352327) scale(0.16 -0.16)">
     <use xlink:href="#DejaVuSerif-30"/>
     <use xlink:href="#DejaVuSerif-30" transform="translate(63.623047 0)"/>
    </g>
   </g>
   <g id="text_7">
    <!-- 10 -->
    <g transform="translate(357.158 159.132051) scale(0.16 -0.16)">
     <use xlink:href="#DejaVuSerif-31"/>
     <use xlink:href="#DejaVuSerif-30" transform="translate(63.623047 0)"/>
    </g>
   </g>
   <g id="text_8">
    <!-- 01 -->
    <g transform="translate(532.562 159.132051) scale(0.16 -0.16)">
     <use xlink:href="#DejaVuSerif-30"/>
     <use xlink:href="#DejaVuSerif-31" transform="translate(63.623047 0)"/>
    </g>
   </g>
   <g id="text_9">
    <!-- 20 -->
    <g transform="translate(269.456 249.911774) scale(0.16 -0.16)">
     <use xlink:href="#DejaVuSerif-32"/>
     <use xlink:href="#DejaVuSerif-30" transform="translate(63.623047 0)"/>
    </g>
   </g>
   <g id="text_10">
    <!-- 11 -->
    <g transform="translate(444.86 249.911774) scale(0.16 -0.16)">
     <use xlink:href="#DejaVuSerif-31"/>
     <use xlink:href="#DejaVuSerif-31" transform="translate(63.623047 0)"/>
    </g>
   </g>
   <g id="text_11">
    <!-- 02 -->
    <g transform="translate(620.264 249.911774) scale(0.16 -0.16)">
     <use xlink:href="#DejaVuSerif-30"/>
     <use xlink:href="#DejaVuSerif-32" transform="translate(63.623047 0)"/>
    </g>
   </g>
   <g id="text_12">
    <!-- 30 -->
    <g transform="translate(181.754 340.691498) scale(0.16 -0.16)">
     <use xlink:href="#DejaVuSerif-33"/>
     <use xlink:href="#DejaVuSerif-30" transform="translate(63.623047 0)"/>
    </g>
   </g>
   <g id="text_13">
    <!-- 21 -->
    <g transform="translate(357.158 340.691498) scale(0.16 -0.16)">
     <use xlink:href="#DejaVuSerif-32"/>
     <use xlink:href="#DejaVuSerif-31" transform="translate(63.623047 0)"/>
    </g>
   </g>
   <g id="text_14">
    <!-- 12 -->
    <g transform="translate(532.562 340.691498) scale(0.16 -0.16)">
     <use xlink:href="#DejaVuSerif-31"/>
     <use xlink:href="#DejaVuSerif-32" transform="translate(63.623047 0)"/>
    </g>
   </g>
   <g id="text_15">
    <!-- 03 -->
    <g transform="translate(707.966 340.691498) scale(0.16 -0.16)">
     <use xlink:href="#DejaVuSerif-30"/>
     <use xlink:href="#DejaVuSerif-33" transform="translate(63.623047 0)"/>
    </g>
   </g>
   <g id="text_16">
    <!-- 30 -->
    <g transform="translate(148.166 431.471221) scale(0.16 -0.16)">
     <use xlink:href="#DejaVuSerif-33"/>
     <use xlink:href="#DejaVuSerif-30" transform="translate(63.623047 0)"/>
    </g>
   </g>
   <g id="text_17">
    <!-- 21 -->
    <g transform="translate(345.962 431.471221) scale(0.16 -0.16)">
     <use xlink:href="#DejaVuSerif-32"/>
     <use xlink:href="#DejaVuSerif-31" transform="translate(63.623047 0)"/>
    </g>
   </g>
   <g id="text_18">
    <!-- 12 -->
    <g transform="translate(543.758 431.471221) scale(0.16 -0.16)">
     <use xlink:href="#DejaVuSerif-31"/>
     <use xlink:href="#DejaVuSerif-32" transform="translate(63.623047 0)"/>
    </g>
   </g>
   <g id="text_19">
    <!-- 03 -->
    <g transform="translate(741.554 431.471221) scale(0.16 -0.16)">
     <use xlink:href="#DejaVuSerif-30"/>
     <use xlink:href="#DejaVuSerif-33" transform="translate(63.623047 0)"/>
    </g>
   </g>
   <g id="text_20">
    <g id="patch_38">
     <path d="M 408.264 107.192201 
L 414.114 107.192201 
Q 415.674 107.192201 415.674 105.632201 
L 415.674 93.050638 
Q 415.674 91.490638 414.114 91.490638 
L 408.264 91.490638 
Q 406.704 91.490638 406.704 93.050638 
L 406.704 105.632201 
Q 406.704 107.192201 408.264 107.192201 
z
" style="fill: #ffffff; opacity: 0.85"/>
    </g>
    <!-- $\delta$ -->
    <g style="fill: #333333" transform="translate(408.264 102.928607) scale(0.13 -0.13)">
     <defs>
      <path id="Cmmi10-b1" d="M 1281 -97 
Q 1059 -97 868 -14 
Q 678 69 536 225 
Q 394 381 325 573 
Q 256 766 256 991 
Q 256 1391 445 1767 
Q 634 2144 961 2419 
Q 1288 2694 1672 2791 
Q 1484 3138 1386 3389 
Q 1288 3641 1288 3903 
Q 1288 4097 1378 4245 
Q 1469 4394 1628 4478 
Q 1788 4563 1984 4563 
Q 2175 4563 2741 4434 
Q 2888 4400 2888 4263 
Q 2888 4156 2809 4068 
Q 2731 3981 2625 3981 
Q 2547 3981 2484 4017 
Q 2422 4053 2287 4143 
Q 2153 4234 2047 4282 
Q 1941 4331 1825 4331 
Q 1694 4331 1589 4251 
Q 1484 4172 1484 4044 
Q 1484 3841 1664 3577 
Q 1844 3313 2175 2900 
Q 2553 2419 2553 1838 
Q 2553 1550 2470 1215 
Q 2388 881 2230 584 
Q 2072 288 1826 95 
Q 1581 -97 1281 -97 
z
M 1294 78 
Q 1544 78 1723 337 
Q 1903 597 1995 955 
Q 2088 1313 2088 1556 
Q 2088 2034 1753 2631 
Q 1416 2538 1172 2238 
Q 928 1938 803 1547 
Q 678 1156 678 806 
Q 678 500 837 289 
Q 997 78 1294 78 
z
" transform="scale(0.015625)"/>
     </defs>
     <use xlink:href="#Cmmi10-b1" transform="translate(0 0.703125)"/>
    </g>
   </g>
   <g id="text_21">
    <g id="patch_39">
     <path d="M 495.966 118.085767 
L 501.816 118.085767 
Q 503.376 118.085767 503.376 116.525767 
L 503.376 103.944205 
Q 503.376 102.384205 501.816 102.384205 
L 495.966 102.384205 
Q 494.406 102.384205 494.406 103.944205 
L 494.406 116.525767 
Q 494.406 118.085767 495.966 118.085767 
z
" style="fill: #ffffff; opacity: 0.85"/>
    </g>
    <!-- $\delta$ -->
    <g style="fill: #333333" transform="translate(495.966 113.822174) scale(0.13 -0.13)">
     <use xlink:href="#Cmmi10-b1" transform="translate(0 0.703125)"/>
    </g>
   </g>
   <g id="text_22">
    <g id="patch_40">
     <path d="M 320.562 197.971924 
L 326.412 197.971924 
Q 327.972 197.971924 327.972 196.411924 
L 327.972 183.830362 
Q 327.972 182.270362 326.412 182.270362 
L 320.562 182.270362 
Q 319.002 182.270362 319.002 183.830362 
L 319.002 196.411924 
Q 319.002 197.971924 320.562 197.971924 
z
" style="fill: #ffffff; opacity: 0.85"/>
    </g>
    <!-- $\delta$ -->
    <g style="fill: #333333" transform="translate(320.562 193.70833) scale(0.13 -0.13)">
     <use xlink:href="#Cmmi10-b1" transform="translate(0 0.703125)"/>
    </g>
   </g>
   <g id="text_23">
    <g id="patch_41">
     <path d="M 488.816 199.871143 
L 508.966 199.871143 
Q 510.526 199.871143 510.526 198.311143 
L 510.526 181.931143 
Q 510.526 180.371143 508.966 180.371143 
L 488.816 180.371143 
Q 487.256 180.371143 487.256 181.931143 
L 487.256 198.311143 
Q 487.256 199.871143 488.816 199.871143 
z
" style="fill: #ffffff; opacity: 0.85"/>
    </g>
    <!-- $\delta\cdot\frac{1}{2}$ -->
    <g style="fill: #333333" transform="translate(488.816 192.981143) scale(0.13 -0.13)">
     <defs>
      <path id="Cmsy10-a2" d="M 538 1600 
Q 538 1691 584 1772 
Q 631 1853 714 1903 
Q 797 1953 891 1953 
Q 981 1953 1064 1903 
Q 1147 1853 1194 1772 
Q 1241 1691 1241 1600 
Q 1241 1456 1139 1351 
Q 1038 1247 891 1247 
Q 747 1247 642 1351 
Q 538 1456 538 1600 
z
" transform="scale(0.015625)"/>
      <path id="Cmr10-31" d="M 594 0 
L 594 225 
Q 1394 225 1394 428 
L 1394 3788 
Q 1063 3628 556 3628 
L 556 3853 
Q 1341 3853 1741 4263 
L 1831 4263 
Q 1853 4263 1873 4245 
Q 1894 4228 1894 4206 
L 1894 428 
Q 1894 225 2694 225 
L 2694 0 
L 594 0 
z
" transform="scale(0.015625)"/>
      <path id="Cmr10-32" d="M 319 0 
L 319 172 
Q 319 188 331 206 
L 1325 1306 
Q 1550 1550 1690 1715 
Q 1831 1881 1968 2097 
Q 2106 2313 2186 2536 
Q 2266 2759 2266 3009 
Q 2266 3272 2169 3511 
Q 2072 3750 1880 3894 
Q 1688 4038 1416 4038 
Q 1138 4038 916 3870 
Q 694 3703 603 3438 
Q 628 3444 672 3444 
Q 816 3444 917 3347 
Q 1019 3250 1019 3097 
Q 1019 2950 917 2848 
Q 816 2747 672 2747 
Q 522 2747 420 2851 
Q 319 2956 319 3097 
Q 319 3338 409 3548 
Q 500 3759 670 3923 
Q 841 4088 1055 4175 
Q 1269 4263 1509 4263 
Q 1875 4263 2190 4108 
Q 2506 3953 2690 3670 
Q 2875 3388 2875 3009 
Q 2875 2731 2753 2481 
Q 2631 2231 2440 2026 
Q 2250 1822 1953 1562 
Q 1656 1303 1563 1216 
L 838 519 
L 1453 519 
Q 1906 519 2211 526 
Q 2516 534 2534 550 
Q 2609 631 2688 1141 
L 2875 1141 
L 2694 0 
L 319 0 
z
" transform="scale(0.015625)"/>
     </defs>
     <use xlink:href="#Cmmi10-b1" transform="translate(0 0.873437)"/>
     <use xlink:href="#Cmsy10-a2" transform="translate(61.943359 0.873437)"/>
     <use xlink:href="#Cmr10-31" transform="translate(107.1875 38.373438) scale(0.7)"/>
     <use xlink:href="#Cmr10-32" transform="translate(107.1875 -39.503125) scale(0.7)"/>
     <path d="M 107.1875 13.373437 
L 107.1875 19.623437 
L 142.1875 19.623437 
L 142.1875 13.373437 
L 107.1875 13.373437 
z
"/>
    </g>
   </g>
   <g id="text_24">
    <g id="patch_42">
     <path d="M 401.114 210.76471 
L 421.264 210.76471 
Q 422.824 210.76471 422.824 209.20471 
L 422.824 192.82471 
Q 422.824 191.26471 421.264 191.26471 
L 401.114 191.26471 
Q 399.554 191.26471 399.554 192.82471 
L 399.554 209.20471 
Q 399.554 210.76471 401.114 210.76471 
z
" style="fill: #ffffff; opacity: 0.85"/>
    </g>
    <!-- $\delta\cdot\frac{1}{2}$ -->
    <g style="fill: #333333" transform="translate(401.114 203.87471) scale(0.13 -0.13)">
     <use xlink:href="#Cmmi10-b1" transform="translate(0 0.873437)"/>
     <use xlink:href="#Cmsy10-a2" transform="translate(61.943359 0.873437)"/>
     <use xlink:href="#Cmr10-31" transform="translate(107.1875 38.373438) scale(0.7)"/>
     <use xlink:href="#Cmr10-32" transform="translate(107.1875 -39.503125) scale(0.7)"/>
     <path d="M 107.1875 13.373437 
L 107.1875 19.623437 
L 142.1875 19.623437 
L 142.1875 13.373437 
L 107.1875 13.373437 
z
"/>
    </g>
   </g>
   <g id="text_25">
    <g id="patch_43">
     <path d="M 583.668 208.865491 
L 589.518 208.865491 
Q 591.078 208.865491 591.078 207.305491 
L 591.078 194.723928 
Q 591.078 193.163928 589.518 193.163928 
L 583.668 193.163928 
Q 582.108 193.163928 582.108 194.723928 
L 582.108 207.305491 
Q 582.108 208.865491 583.668 208.865491 
z
" style="fill: #ffffff; opacity: 0.85"/>
    </g>
    <!-- $\delta$ -->
    <g style="fill: #333333" transform="translate(583.668 204.601897) scale(0.13 -0.13)">
     <use xlink:href="#Cmmi10-b1" transform="translate(0 0.703125)"/>
    </g>
   </g>
   <g id="text_26">
    <g id="patch_44">
     <path d="M 232.86 288.751648 
L 238.71 288.751648 
Q 240.27 288.751648 240.27 287.191648 
L 240.27 274.610085 
Q 240.27 273.050085 238.71 273.050085 
L 232.86 273.050085 
Q 231.3 273.050085 231.3 274.610085 
L 231.3 287.191648 
Q 231.3 288.751648 232.86 288.751648 
z
" style="fill: #ffffff; opacity: 0.85"/>
    </g>
    <!-- $\delta$ -->
    <g style="fill: #333333" transform="translate(232.86 284.488054) scale(0.13 -0.13)">
     <use xlink:href="#Cmmi10-b1" transform="translate(0 0.703125)"/>
    </g>
   </g>
   <g id="text_27">
    <g id="patch_45">
     <path d="M 401.114 290.715866 
L 421.264 290.715866 
Q 422.824 290.715866 422.824 289.155866 
L 422.824 272.645866 
Q 422.824 271.085866 421.264 271.085866 
L 401.114 271.085866 
Q 399.554 271.085866 399.554 272.645866 
L 399.554 289.155866 
Q 399.554 290.715866 401.114 290.715866 
z
" style="fill: #ffffff; opacity: 0.85"/>
    </g>
    <!-- $\delta\cdot\frac{2}{3}$ -->
    <g style="fill: #333333" transform="translate(401.114 283.695866) scale(0.13 -0.13)">
     <defs>
      <path id="Cmr10-33" d="M 609 494 
Q 759 275 1012 169 
Q 1266 63 1556 63 
Q 1928 63 2084 380 
Q 2241 697 2241 1100 
Q 2241 1281 2208 1462 
Q 2175 1644 2097 1800 
Q 2019 1956 1883 2050 
Q 1747 2144 1550 2144 
L 1125 2144 
Q 1069 2144 1069 2203 
L 1069 2259 
Q 1069 2309 1125 2309 
L 1478 2338 
Q 1703 2338 1851 2506 
Q 2000 2675 2069 2917 
Q 2138 3159 2138 3378 
Q 2138 3684 1994 3881 
Q 1850 4078 1556 4078 
Q 1313 4078 1091 3986 
Q 869 3894 738 3706 
Q 750 3709 759 3711 
Q 769 3713 781 3713 
Q 925 3713 1022 3613 
Q 1119 3513 1119 3372 
Q 1119 3234 1022 3134 
Q 925 3034 781 3034 
Q 641 3034 541 3134 
Q 441 3234 441 3372 
Q 441 3647 606 3850 
Q 772 4053 1033 4158 
Q 1294 4263 1556 4263 
Q 1750 4263 1965 4205 
Q 2181 4147 2356 4039 
Q 2531 3931 2642 3762 
Q 2753 3594 2753 3378 
Q 2753 3109 2633 2881 
Q 2513 2653 2303 2487 
Q 2094 2322 1844 2241 
Q 2122 2188 2372 2031 
Q 2622 1875 2773 1631 
Q 2925 1388 2925 1106 
Q 2925 753 2731 467 
Q 2538 181 2222 20 
Q 1906 -141 1556 -141 
Q 1256 -141 954 -26 
Q 653 88 461 316 
Q 269 544 269 863 
Q 269 1022 375 1128 
Q 481 1234 641 1234 
Q 744 1234 830 1186 
Q 916 1138 964 1050 
Q 1013 963 1013 863 
Q 1013 706 903 600 
Q 794 494 641 494 
L 609 494 
z
" transform="scale(0.015625)"/>
     </defs>
     <use xlink:href="#Cmmi10-b1" transform="translate(0 0.873437)"/>
     <use xlink:href="#Cmsy10-a2" transform="translate(61.943359 0.873437)"/>
     <use xlink:href="#Cmr10-32" transform="translate(107.1875 38.373438) scale(0.7)"/>
     <use xlink:href="#Cmr10-33" transform="translate(107.1875 -39.503125) scale(0.7)"/>
     <path d="M 107.1875 13.373437 
L 107.1875 19.623437 
L 142.1875 19.623437 
L 142.1875 13.373437 
L 107.1875 13.373437 
z
"/>
    </g>
   </g>
   <g id="text_28">
    <g id="patch_46">
     <path d="M 313.412 301.609433 
L 333.562 301.609433 
Q 335.122 301.609433 335.122 300.049433 
L 335.122 283.539433 
Q 335.122 281.979433 333.562 281.979433 
L 313.412 281.979433 
Q 311.852 281.979433 311.852 283.539433 
L 311.852 300.049433 
Q 311.852 301.609433 313.412 301.609433 
z
" style="fill: #ffffff; opacity: 0.85"/>
    </g>
    <!-- $\delta\cdot\frac{1}{3}$ -->
    <g style="fill: #333333" transform="translate(313.412 294.589433) scale(0.13 -0.13)">
     <use xlink:href="#Cmmi10-b1" transform="translate(0 0.873437)"/>
     <use xlink:href="#Cmsy10-a2" transform="translate(61.943359 0.873437)"/>
     <use xlink:href="#Cmr10-31" transform="translate(107.1875 38.373438) scale(0.7)"/>
     <use xlink:href="#Cmr10-33" transform="translate(107.1875 -39.503125) scale(0.7)"/>
     <path d="M 107.1875 13.373437 
L 107.1875 19.623437 
L 142.1875 19.623437 
L 142.1875 13.373437 
L 107.1875 13.373437 
z
"/>
    </g>
   </g>
   <g id="text_29">
    <g id="patch_47">
     <path d="M 576.518 290.715866 
L 596.668 290.715866 
Q 598.228 290.715866 598.228 289.155866 
L 598.228 272.645866 
Q 598.228 271.085866 596.668 271.085866 
L 576.518 271.085866 
Q 574.958 271.085866 574.958 272.645866 
L 574.958 289.155866 
Q 574.958 290.715866 576.518 290.715866 
z
" style="fill: #ffffff; opacity: 0.85"/>
    </g>
    <!-- $\delta\cdot\frac{1}{3}$ -->
    <g style="fill: #333333" transform="translate(576.518 283.695866) scale(0.13 -0.13)">
     <use xlink:href="#Cmmi10-b1" transform="translate(0 0.873437)"/>
     <use xlink:href="#Cmsy10-a2" transform="translate(61.943359 0.873437)"/>
     <use xlink:href="#Cmr10-31" transform="translate(107.1875 38.373438) scale(0.7)"/>
     <use xlink:href="#Cmr10-33" transform="translate(107.1875 -39.503125) scale(0.7)"/>
     <path d="M 107.1875 13.373437 
L 107.1875 19.623437 
L 142.1875 19.623437 
L 142.1875 13.373437 
L 107.1875 13.373437 
z
"/>
    </g>
   </g>
   <g id="text_30">
    <g id="patch_48">
     <path d="M 488.816 301.609433 
L 508.966 301.609433 
Q 510.526 301.609433 510.526 300.049433 
L 510.526 283.539433 
Q 510.526 281.979433 508.966 281.979433 
L 488.816 281.979433 
Q 487.256 281.979433 487.256 283.539433 
L 487.256 300.049433 
Q 487.256 301.609433 488.816 301.609433 
z
" style="fill: #ffffff; opacity: 0.85"/>
    </g>
    <!-- $\delta\cdot\frac{2}{3}$ -->
    <g style="fill: #333333" transform="translate(488.816 294.589433) scale(0.13 -0.13)">
     <use xlink:href="#Cmmi10-b1" transform="translate(0 0.873437)"/>
     <use xlink:href="#Cmsy10-a2" transform="translate(61.943359 0.873437)"/>
     <use xlink:href="#Cmr10-32" transform="translate(107.1875 38.373438) scale(0.7)"/>
     <use xlink:href="#Cmr10-33" transform="translate(107.1875 -39.503125) scale(0.7)"/>
     <path d="M 107.1875 13.373437 
L 107.1875 19.623437 
L 142.1875 19.623437 
L 142.1875 13.373437 
L 107.1875 13.373437 
z
"/>
    </g>
   </g>
   <g id="text_31">
    <g id="patch_49">
     <path d="M 671.37 299.645214 
L 677.22 299.645214 
Q 678.78 299.645214 678.78 298.085214 
L 678.78 285.503652 
Q 678.78 283.943652 677.22 283.943652 
L 671.37 283.943652 
Q 669.81 283.943652 669.81 285.503652 
L 669.81 298.085214 
Q 669.81 299.645214 671.37 299.645214 
z
" style="fill: #ffffff; opacity: 0.85"/>
    </g>
    <!-- $\delta$ -->
    <g style="fill: #333333" transform="translate(671.37 295.381621) scale(0.13 -0.13)">
     <use xlink:href="#Cmmi10-b1" transform="translate(0 0.703125)"/>
    </g>
   </g>
   <g id="text_32">
    <g id="patch_50">
     <path d="M 129.72 378.927465 
L 145.92 378.927465 
Q 147.36 378.927465 147.36 377.487465 
L 147.36 365.873715 
Q 147.36 364.433715 145.92 364.433715 
L 129.72 364.433715 
Q 128.28 364.433715 128.28 365.873715 
L 128.28 377.487465 
Q 128.28 378.927465 129.72 378.927465 
z
" style="fill: #ffffff; opacity: 0.85"/>
    </g>
    <!-- $\delta y_1$ -->
    <g style="fill: #333333" transform="translate(129.72 374.967465) scale(0.12 -0.12)">
     <defs>
      <path id="Cmmi10-79" d="M 538 -916 
Q 672 -1147 1006 -1147 
Q 1309 -1147 1531 -934 
Q 1753 -722 1889 -420 
Q 2025 -119 2100 197 
Q 1816 -72 1484 -72 
Q 1231 -72 1053 15 
Q 875 103 776 276 
Q 678 450 678 697 
Q 678 906 734 1126 
Q 791 1347 892 1617 
Q 994 1888 1069 2088 
Q 1153 2322 1153 2472 
Q 1153 2663 1013 2663 
Q 759 2663 595 2402 
Q 431 2141 353 1819 
Q 341 1778 300 1778 
L 225 1778 
Q 172 1778 172 1838 
L 172 1856 
Q 275 2238 487 2533 
Q 700 2828 1025 2828 
Q 1253 2828 1411 2678 
Q 1569 2528 1569 2297 
Q 1569 2178 1516 2047 
Q 1488 1969 1388 1706 
Q 1288 1444 1234 1272 
Q 1181 1100 1147 934 
Q 1113 769 1113 603 
Q 1113 391 1203 244 
Q 1294 97 1491 97 
Q 1888 97 2203 581 
L 2688 2553 
Q 2709 2638 2787 2698 
Q 2866 2759 2956 2759 
Q 3034 2759 3092 2709 
Q 3150 2659 3150 2578 
Q 3150 2541 3144 2528 
L 2509 -19 
Q 2425 -347 2200 -647 
Q 1975 -947 1658 -1130 
Q 1341 -1313 997 -1313 
Q 831 -1313 668 -1248 
Q 506 -1184 406 -1056 
Q 306 -928 306 -756 
Q 306 -581 409 -453 
Q 513 -325 684 -325 
Q 788 -325 858 -389 
Q 928 -453 928 -556 
Q 928 -703 818 -812 
Q 709 -922 563 -922 
Q 556 -919 550 -917 
Q 544 -916 538 -916 
z
" transform="scale(0.015625)"/>
     </defs>
     <use xlink:href="#Cmmi10-b1" transform="translate(0 0.703125)"/>
     <use xlink:href="#Cmmi10-79" transform="translate(44.384766 0.703125)"/>
     <use xlink:href="#Cmr10-31" transform="translate(93.408203 -16.303125) scale(0.7)"/>
    </g>
   </g>
   <g id="text_33">
    <g id="patch_51">
     <path d="M 329.382 380.743059 
L 345.582 380.743059 
Q 347.022 380.743059 347.022 379.303059 
L 347.022 367.689309 
Q 347.022 366.249309 345.582 366.249309 
L 329.382 366.249309 
Q 327.942 366.249309 327.942 367.689309 
L 327.942 379.303059 
Q 327.942 380.743059 329.382 380.743059 
z
" style="fill: #ffffff; opacity: 0.85"/>
    </g>
    <!-- $\delta y_2$ -->
    <g style="fill: #333333" transform="translate(329.382 376.783059) scale(0.12 -0.12)">
     <use xlink:href="#Cmmi10-b1" transform="translate(0 0.703125)"/>
     <use xlink:href="#Cmmi10-79" transform="translate(44.384766 0.703125)"/>
     <use xlink:href="#Cmr10-32" transform="translate(93.408203 -16.303125) scale(0.7)"/>
    </g>
   </g>
   <g id="text_34">
    <g id="patch_52">
     <path d="M 564.498 380.743059 
L 580.698 380.743059 
Q 582.138 380.743059 582.138 379.303059 
L 582.138 367.689309 
Q 582.138 366.249309 580.698 366.249309 
L 564.498 366.249309 
Q 563.058 366.249309 563.058 367.689309 
L 563.058 379.303059 
Q 563.058 380.743059 564.498 380.743059 
z
" style="fill: #ffffff; opacity: 0.85"/>
    </g>
    <!-- $\delta y_1$ -->
    <g style="fill: #333333" transform="translate(564.498 376.783059) scale(0.12 -0.12)">
     <use xlink:href="#Cmmi10-b1" transform="translate(0 0.703125)"/>
     <use xlink:href="#Cmmi10-79" transform="translate(44.384766 0.703125)"/>
     <use xlink:href="#Cmr10-31" transform="translate(93.408203 -16.303125) scale(0.7)"/>
    </g>
   </g>
   <g id="text_35">
    <g id="patch_53">
     <path d="M 764.16 378.927465 
L 780.36 378.927465 
Q 781.8 378.927465 781.8 377.487465 
L 781.8 365.873715 
Q 781.8 364.433715 780.36 364.433715 
L 764.16 364.433715 
Q 762.72 364.433715 762.72 365.873715 
L 762.72 377.487465 
Q 762.72 378.927465 764.16 378.927465 
z
" style="fill: #ffffff; opacity: 0.85"/>
    </g>
    <!-- $\delta y_2$ -->
    <g style="fill: #333333" transform="translate(764.16 374.967465) scale(0.12 -0.12)">
     <use xlink:href="#Cmmi10-b1" transform="translate(0 0.703125)"/>
     <use xlink:href="#Cmmi10-79" transform="translate(44.384766 0.703125)"/>
     <use xlink:href="#Cmr10-32" transform="translate(93.408203 -16.303125) scale(0.7)"/>
    </g>
   </g>
   <g id="text_36">
    <g id="patch_54">
     <path d="M 185.868 377.262198 
L 212.928 377.262198 
Q 214.248 377.262198 214.248 375.942198 
L 214.248 361.972198 
Q 214.248 360.652198 212.928 360.652198 
L 185.868 360.652198 
Q 184.548 360.652198 184.548 361.972198 
L 184.548 375.942198 
Q 184.548 377.262198 185.868 377.262198 
z
" style="fill: #ffffff; opacity: 0.85"/>
    </g>
    <!-- $\delta\cdot\frac{1}{3}y_1$ -->
    <g style="fill: #333333" transform="translate(185.868 371.322198) scale(0.11 -0.11)">
     <use xlink:href="#Cmmi10-b1" transform="translate(0 0.873437)"/>
     <use xlink:href="#Cmsy10-a2" transform="translate(61.943359 0.873437)"/>
     <use xlink:href="#Cmr10-31" transform="translate(107.1875 38.373438) scale(0.7)"/>
     <use xlink:href="#Cmr10-33" transform="translate(107.1875 -39.503125) scale(0.7)"/>
     <use xlink:href="#Cmmi10-79" transform="translate(154.6875 0.873437)"/>
     <use xlink:href="#Cmr10-31" transform="translate(203.710938 -16.132812) scale(0.7)"/>
     <path d="M 107.1875 13.373437 
L 107.1875 19.623437 
L 142.1875 19.623437 
L 142.1875 13.373437 
L 107.1875 13.373437 
z
"/>
    </g>
   </g>
   <g id="text_37">
    <g id="patch_55">
     <path d="M 335.24 377.868894 
L 388.24 377.868894 
Q 389.44 377.868894 389.44 376.668894 
L 389.44 363.968894 
Q 389.44 362.768894 388.24 362.768894 
L 335.24 362.768894 
Q 334.04 362.768894 334.04 363.968894 
L 334.04 376.668894 
Q 334.04 377.868894 335.24 377.868894 
z
" style="fill: #ffffff; opacity: 0.85"/>
    </g>
    <!-- $\delta\left(\frac{2}{3}y_1+\frac{1}{3}y_2\right)$ -->
    <g style="fill: #333333" transform="translate(335.24 372.468894) scale(0.1 -0.1)">
     <defs>
      <path id="Cmex10-a1" d="M 2503 -7406 
Q 1713 -6744 1342 -5734 
Q 972 -4725 972 -3584 
Q 972 -2434 1342 -1423 
Q 1713 -413 2503 244 
Q 2503 256 2534 256 
L 2613 256 
Q 2631 256 2647 236 
Q 2663 216 2663 197 
Q 2663 172 2650 159 
Q 2303 -200 2067 -640 
Q 1831 -1081 1695 -1554 
Q 1559 -2028 1500 -2543 
Q 1441 -3059 1441 -3591 
Q 1441 -6072 2650 -7322 
Q 2663 -7334 2663 -7359 
Q 2663 -7378 2645 -7398 
Q 2628 -7419 2613 -7419 
L 2534 -7419 
Q 2503 -7419 2503 -7406 
z
" transform="scale(0.015625)"/>
      <path id="Cmr10-2b" d="M 481 1472 
Q 428 1472 393 1512 
Q 359 1553 359 1600 
Q 359 1647 393 1687 
Q 428 1728 481 1728 
L 2363 1728 
L 2363 3616 
Q 2363 3666 2400 3698 
Q 2438 3731 2491 3731 
Q 2538 3731 2578 3698 
Q 2619 3666 2619 3616 
L 2619 1728 
L 4500 1728 
Q 4547 1728 4581 1687 
Q 4616 1647 4616 1600 
Q 4616 1553 4581 1512 
Q 4547 1472 4500 1472 
L 2619 1472 
L 2619 -416 
Q 2619 -466 2578 -498 
Q 2538 -531 2491 -531 
Q 2438 -531 2400 -498 
Q 2363 -466 2363 -416 
L 2363 1472 
L 481 1472 
z
" transform="scale(0.015625)"/>
      <path id="Cmex10-a2" d="M 319 -7419 
Q 263 -7419 263 -7359 
Q 263 -7334 275 -7322 
Q 734 -6844 1001 -6236 
Q 1269 -5628 1376 -4961 
Q 1484 -4294 1484 -3578 
Q 1484 -1091 275 159 
Q 263 172 263 197 
Q 263 256 319 256 
L 397 256 
Q 416 256 428 244 
Q 1216 -413 1584 -1423 
Q 1953 -2434 1953 -3584 
Q 1953 -4725 1586 -5734 
Q 1219 -6744 428 -7406 
Q 416 -7419 397 -7419 
L 319 -7419 
z
" transform="scale(0.015625)"/>
     </defs>
     <use xlink:href="#Cmmi10-b1" transform="translate(0 0.873437)"/>
     <use xlink:href="#Cmex10-a1" transform="translate(44.384766 80.782813) scale(1.051062)"/>
     <use xlink:href="#Cmr10-32" transform="translate(92.518524 38.373438) scale(0.7)"/>
     <use xlink:href="#Cmr10-33" transform="translate(92.518524 -39.503125) scale(0.7)"/>
     <use xlink:href="#Cmmi10-79" transform="translate(140.018524 0.873437)"/>
     <use xlink:href="#Cmr10-31" transform="translate(189.041962 -16.132812) scale(0.7)"/>
     <use xlink:href="#Cmr10-2b" transform="translate(247.977899 0.873437)"/>
     <use xlink:href="#Cmr10-31" transform="translate(343.22204 38.373438) scale(0.7)"/>
     <use xlink:href="#Cmr10-33" transform="translate(343.22204 -39.503125) scale(0.7)"/>
     <use xlink:href="#Cmmi10-79" transform="translate(390.72204 0.873437)"/>
     <use xlink:href="#Cmr10-32" transform="translate(439.745477 -16.132812) scale(0.7)"/>
     <use xlink:href="#Cmex10-a2" transform="translate(481.122821 80.782813) scale(1.051062)"/>
     <path d="M 92.518524 13.373437 
L 92.518524 19.623437 
L 127.518524 19.623437 
L 127.518524 13.373437 
L 92.518524 13.373437 
z
"/>
     <path d="M 343.22204 13.373437 
L 343.22204 19.623437 
L 378.22204 19.623437 
L 378.22204 13.373437 
L 343.22204 13.373437 
z
"/>
    </g>
   </g>
   <g id="text_38">
    <g id="patch_56">
     <path d="M 510.552 385.432373 
L 537.612 385.432373 
Q 538.932 385.432373 538.932 384.112373 
L 538.932 370.142373 
Q 538.932 368.822373 537.612 368.822373 
L 510.552 368.822373 
Q 509.232 368.822373 509.232 370.142373 
L 509.232 384.112373 
Q 509.232 385.432373 510.552 385.432373 
z
" style="fill: #ffffff; opacity: 0.85"/>
    </g>
    <!-- $\delta\cdot\frac{2}{3}y_2$ -->
    <g style="fill: #333333" transform="translate(510.552 379.492373) scale(0.11 -0.11)">
     <use xlink:href="#Cmmi10-b1" transform="translate(0 0.873437)"/>
     <use xlink:href="#Cmsy10-a2" transform="translate(61.943359 0.873437)"/>
     <use xlink:href="#Cmr10-32" transform="translate(107.1875 38.373438) scale(0.7)"/>
     <use xlink:href="#Cmr10-33" transform="translate(107.1875 -39.503125) scale(0.7)"/>
     <use xlink:href="#Cmmi10-79" transform="translate(154.6875 0.873437)"/>
     <use xlink:href="#Cmr10-32" transform="translate(203.710938 -16.132812) scale(0.7)"/>
     <path d="M 107.1875 13.373437 
L 107.1875 19.623437 
L 142.1875 19.623437 
L 142.1875 13.373437 
L 107.1875 13.373437 
z
"/>
    </g>
   </g>
   <g id="text_39">
    <g id="patch_57">
     <path d="M 372.468 385.432373 
L 399.528 385.432373 
Q 400.848 385.432373 400.848 384.112373 
L 400.848 370.142373 
Q 400.848 368.822373 399.528 368.822373 
L 372.468 368.822373 
Q 371.148 368.822373 371.148 370.142373 
L 371.148 384.112373 
Q 371.148 385.432373 372.468 385.432373 
z
" style="fill: #ffffff; opacity: 0.85"/>
    </g>
    <!-- $\delta\cdot\frac{2}{3}y_1$ -->
    <g style="fill: #333333" transform="translate(372.468 379.492373) scale(0.11 -0.11)">
     <use xlink:href="#Cmmi10-b1" transform="translate(0 0.873437)"/>
     <use xlink:href="#Cmsy10-a2" transform="translate(61.943359 0.873437)"/>
     <use xlink:href="#Cmr10-32" transform="translate(107.1875 38.373438) scale(0.7)"/>
     <use xlink:href="#Cmr10-33" transform="translate(107.1875 -39.503125) scale(0.7)"/>
     <use xlink:href="#Cmmi10-79" transform="translate(154.6875 0.873437)"/>
     <use xlink:href="#Cmr10-31" transform="translate(203.710938 -16.132812) scale(0.7)"/>
     <path d="M 107.1875 13.373437 
L 107.1875 19.623437 
L 142.1875 19.623437 
L 142.1875 13.373437 
L 107.1875 13.373437 
z
"/>
    </g>
   </g>
   <g id="text_40">
    <g id="patch_58">
     <path d="M 521.84 377.868894 
L 574.84 377.868894 
Q 576.04 377.868894 576.04 376.668894 
L 576.04 363.968894 
Q 576.04 362.768894 574.84 362.768894 
L 521.84 362.768894 
Q 520.64 362.768894 520.64 363.968894 
L 520.64 376.668894 
Q 520.64 377.868894 521.84 377.868894 
z
" style="fill: #ffffff; opacity: 0.85"/>
    </g>
    <!-- $\delta\left(\frac{1}{3}y_1+\frac{2}{3}y_2\right)$ -->
    <g style="fill: #333333" transform="translate(521.84 372.468894) scale(0.1 -0.1)">
     <use xlink:href="#Cmmi10-b1" transform="translate(0 0.873437)"/>
     <use xlink:href="#Cmex10-a1" transform="translate(44.384766 80.782813) scale(1.051062)"/>
     <use xlink:href="#Cmr10-31" transform="translate(92.518524 38.373438) scale(0.7)"/>
     <use xlink:href="#Cmr10-33" transform="translate(92.518524 -39.503125) scale(0.7)"/>
     <use xlink:href="#Cmmi10-79" transform="translate(140.018524 0.873437)"/>
     <use xlink:href="#Cmr10-31" transform="translate(189.041962 -16.132812) scale(0.7)"/>
     <use xlink:href="#Cmr10-2b" transform="translate(247.977899 0.873437)"/>
     <use xlink:href="#Cmr10-32" transform="translate(343.22204 38.373438) scale(0.7)"/>
     <use xlink:href="#Cmr10-33" transform="translate(343.22204 -39.503125) scale(0.7)"/>
     <use xlink:href="#Cmmi10-79" transform="translate(390.72204 0.873437)"/>
     <use xlink:href="#Cmr10-32" transform="translate(439.745477 -16.132812) scale(0.7)"/>
     <use xlink:href="#Cmex10-a2" transform="translate(481.122821 80.782813) scale(1.051062)"/>
     <path d="M 92.518524 13.373437 
L 92.518524 19.623437 
L 127.518524 19.623437 
L 127.518524 13.373437 
L 92.518524 13.373437 
z
"/>
     <path d="M 343.22204 13.373437 
L 343.22204 19.623437 
L 378.22204 19.623437 
L 378.22204 13.373437 
L 343.22204 13.373437 
z
"/>
    </g>
   </g>
   <g id="text_41">
    <g id="patch_59">
     <path d="M 697.152 377.262198 
L 724.212 377.262198 
Q 725.532 377.262198 725.532 375.942198 
L 725.532 361.972198 
Q 725.532 360.652198 724.212 360.652198 
L 697.152 360.652198 
Q 695.832 360.652198 695.832 361.972198 
L 695.832 375.942198 
Q 695.832 377.262198 697.152 377.262198 
z
" style="fill: #ffffff; opacity: 0.85"/>
    </g>
    <!-- $\delta\cdot\frac{1}{3}y_2$ -->
    <g style="fill: #333333" transform="translate(697.152 371.322198) scale(0.11 -0.11)">
     <use xlink:href="#Cmmi10-b1" transform="translate(0 0.873437)"/>
     <use xlink:href="#Cmsy10-a2" transform="translate(61.943359 0.873437)"/>
     <use xlink:href="#Cmr10-31" transform="translate(107.1875 38.373438) scale(0.7)"/>
     <use xlink:href="#Cmr10-33" transform="translate(107.1875 -39.503125) scale(0.7)"/>
     <use xlink:href="#Cmmi10-79" transform="translate(154.6875 0.873437)"/>
     <use xlink:href="#Cmr10-32" transform="translate(203.710938 -16.132812) scale(0.7)"/>
     <path d="M 107.1875 13.373437 
L 107.1875 19.623437 
L 142.1875 19.623437 
L 142.1875 13.373437 
L 107.1875 13.373437 
z
"/>
    </g>
   </g>
  </g>
 </g>
 <defs>
  <clipPath id="p0b5bee55cb">
   <rect x="7.2" y="7.2" width="895.68" height="492.48"/>
  </clipPath>
 </defs>
</svg>
