<?xml version="1.0" encoding="utf-8" standalone="no"?>
<!DOCTYPE svg PUBLIC "-//W3C//DTD SVG 1.1//EN"
  "http://www.w3.org/Graphics/SVG/1.1/DTD/svg11.dtd">
<svg xmlns:xlink="http://www.w3.org/1999/xlink" width="910.08pt" height="506.88pt" viewBox="0 0 910.08 506.88" xmlns="http://www.w3.org/2000/svg" version="1.1">
 <metadata>
  <rdf:RDF xmlns:dc="http://purl.org/dc/elements/1.1/" xmlns:cc="http://creativecommons.org/ns#" xmlns:rdf="http://www.w3.org/1999/02/22-rdf-syntax-ns#">
   <cc:Work>
    <dc:type rdf:resource="http://purl.org/dc/dcmitype/StillImage"/>
    <dc:date>2026-02-17T20:25:07.680296</dc:date>
    <dc:format>image/svg+xml</dc:format>
    <dc:creator>
     <cc:Agent>
      <dc:title>Matplotlib v3.10.1, https://matplotlib.org/</dc:title>
     </cc:Agent>
    </dc:creator>
   </cc:Work>
  </rdf:RDF>
 </metadata>
 <defs>
  <style type="text/css">*{stroke-linejoin: round; stroke-linecap: butt}</style>
 </defs>
 <g id="figure_1">
  <g id="patch_1">
   <path d="M 0 506.88 
L 910.08 506.88 
L 910.08 0 
L 0 0 
z
" style="fill: #ffffff"/>
  </g>
  <g id="axes_1">
   <g id="patch_2">
    <path d="M 382.589141 139.483027 
Q 417.174343 115.107713 439.240448 81.386277 
" clip-path="url(#p3fbcb911bd)" style="fill: none; stroke: #333333; stroke-width: 1.8; stroke-linecap: round"/>
    <path d="M 434.603943 84.088651 
L 439.240448 81.386277 
L 438.620443 86.716905 
" clip-path="url(#p3fbcb911bd)" style="fill: none; stroke: #333333; stroke-width: 1.8; stroke-linecap: round"/>
   </g>
   <g id="patch_3">
    <path d="M 527.490859 139.483027 
Q 492.905657 115.107713 470.839552 81.386277 
" clip-path="url(#p3fbcb911bd)" style="fill: none; stroke: #333333; stroke-width: 1.8; stroke-linecap: round"/>
    <path d="M 471.459557 86.716905 
L 470.839552 81.386277 
L 475.476057 84.088651 
" clip-path="url(#p3fbcb911bd)" style="fill: none; stroke: #333333; stroke-width: 1.8; stroke-linecap: round"/>
   </g>
   <g id="patch_4">
    <path d="M 294.887141 230.262751 
Q 329.472343 205.887436 351.538448 172.166001 
" clip-path="url(#p3fbcb911bd)" style="fill: none; stroke: #333333; stroke-width: 1.8; stroke-linecap: round"/>
    <path d="M 346.901943 174.868374 
L 351.538448 172.166001 
L 350.918443 177.496629 
" clip-path="url(#p3fbcb911bd)" style="fill: none; stroke: #333333; stroke-width: 1.8; stroke-linecap: round"/>
   </g>
   <g id="patch_5">
    <path d="M 470.291141 230.262751 
Q 504.876343 205.887436 526.942448 172.166001 
" clip-path="url(#p3fbcb911bd)" style="fill: none; stroke: #333333; stroke-width: 1.8; stroke-linecap: round"/>
    <path d="M 522.305943 174.868374 
L 526.942448 172.166001 
L 526.322443 177.496629 
" clip-path="url(#p3fbcb911bd)" style="fill: none; stroke: #333333; stroke-width: 1.8; stroke-linecap: round"/>
   </g>
   <g id="patch_6">
    <path d="M 439.788859 230.262751 
Q 405.203657 205.887436 383.137552 172.166001 
" clip-path="url(#p3fbcb911bd)" style="fill: none; stroke: #333333; stroke-width: 1.8; stroke-linecap: round"/>
    <path d="M 383.757557 177.496629 
L 383.137552 172.166001 
L 387.774057 174.868374 
" clip-path="url(#p3fbcb911bd)" style="fill: none; stroke: #333333; stroke-width: 1.8; stroke-linecap: round"/>
   </g>
   <g id="patch_7">
    <path d="M 615.192859 230.262751 
Q 580.607657 205.887436 558.541552 172.166001 
" clip-path="url(#p3fbcb911bd)" style="fill: none; stroke: #333333; stroke-width: 1.8; stroke-linecap: round"/>
    <path d="M 559.161557 177.496629 
L 558.541552 172.166001 
L 563.178057 174.868374 
" clip-path="url(#p3fbcb911bd)" style="fill: none; stroke: #333333; stroke-width: 1.8; stroke-linecap: round"/>
   </g>
   <g id="patch_8">
    <path d="M 207.185141 321.042474 
Q 241.770343 296.66716 263.836448 262.945724 
" clip-path="url(#p3fbcb911bd)" style="fill: none; stroke: #333333; stroke-width: 1.8; stroke-linecap: round"/>
    <path d="M 259.199943 265.648098 
L 263.836448 262.945724 
L 263.216443 268.276352 
" clip-path="url(#p3fbcb911bd)" style="fill: none; stroke: #333333; stroke-width: 1.8; stroke-linecap: round"/>
   </g>
   <g id="patch_9">
    <path d="M 382.589141 321.042474 
Q 417.174343 296.66716 439.240448 262.945724 
" clip-path="url(#p3fbcb911bd)" style="fill: none; stroke: #333333; stroke-width: 1.8; stroke-linecap: round"/>
    <path d="M 434.603943 265.648098 
L 439.240448 262.945724 
L 438.620443 268.276352 
" clip-path="url(#p3fbcb911bd)" style="fill: none; stroke: #333333; stroke-width: 1.8; stroke-linecap: round"/>
   </g>
   <g id="patch_10">
    <path d="M 352.086859 321.042474 
Q 317.501657 296.66716 295.435552 262.945724 
" clip-path="url(#p3fbcb911bd)" style="fill: none; stroke: #333333; stroke-width: 1.8; stroke-linecap: round"/>
    <path d="M 296.055557 268.276352 
L 295.435552 262.945724 
L 300.072057 265.648098 
" clip-path="url(#p3fbcb911bd)" style="fill: none; stroke: #333333; stroke-width: 1.8; stroke-linecap: round"/>
   </g>
   <g id="patch_11">
    <path d="M 557.993141 321.042474 
Q 592.578343 296.66716 614.644448 262.945724 
" clip-path="url(#p3fbcb911bd)" style="fill: none; stroke: #333333; stroke-width: 1.8; stroke-linecap: round"/>
    <path d="M 610.007943 265.648098 
L 614.644448 262.945724 
L 614.024443 268.276352 
" clip-path="url(#p3fbcb911bd)" style="fill: none; stroke: #333333; stroke-width: 1.8; stroke-linecap: round"/>
   </g>
   <g id="patch_12">
    <path d="M 527.490859 321.042474 
Q 492.905657 296.66716 470.839552 262.945724 
" clip-path="url(#p3fbcb911bd)" style="fill: none; stroke: #333333; stroke-width: 1.8; stroke-linecap: round"/>
    <path d="M 471.459557 268.276352 
L 470.839552 262.945724 
L 475.476057 265.648098 
" clip-path="url(#p3fbcb911bd)" style="fill: none; stroke: #333333; stroke-width: 1.8; stroke-linecap: round"/>
   </g>
   <g id="patch_13">
    <path d="M 702.894859 321.042474 
Q 668.309657 296.66716 646.243552 262.945724 
" clip-path="url(#p3fbcb911bd)" style="fill: none; stroke: #333333; stroke-width: 1.8; stroke-linecap: round"/>
    <path d="M 646.863557 268.276352 
L 646.243552 262.945724 
L 650.880057 265.648098 
" clip-path="url(#p3fbcb911bd)" style="fill: none; stroke: #333333; stroke-width: 1.8; stroke-linecap: round"/>
   </g>
   <g id="patch_14">
    <path d="M 164.937327 409.24156 
Q 175.139428 381.667905 184.565604 356.191378 
" clip-path="url(#p3fbcb911bd)" style="fill: none; stroke: #333333; stroke-width: 2; stroke-linecap: round"/>
    <path d="M 180.64911 359.860312 
L 184.565604 356.191378 
L 185.150855 361.525933 
" clip-path="url(#p3fbcb911bd)" style="fill: none; stroke: #333333; stroke-width: 2; stroke-linecap: round"/>
   </g>
   <g id="patch_15">
    <path d="M 182.191741 417.280412 
Q 272.678542 404.313365 342.174118 348.433564 
" clip-path="url(#p3fbcb911bd)" style="fill: none; stroke: #333333; stroke-width: 2; stroke-linecap: round"/>
    <path d="M 336.929486 349.571031 
L 342.174118 348.433564 
L 339.937312 353.31175 
" clip-path="url(#p3fbcb911bd)" style="fill: none; stroke: #333333; stroke-width: 2; stroke-linecap: round"/>
   </g>
   <g id="patch_16">
    <path d="M 727.888259 417.280412 
Q 637.401458 404.313365 567.905882 348.433564 
" clip-path="url(#p3fbcb911bd)" style="fill: none; stroke: #333333; stroke-width: 2; stroke-linecap: round"/>
    <path d="M 570.142688 353.31175 
L 567.905882 348.433564 
L 573.150514 349.571031 
" clip-path="url(#p3fbcb911bd)" style="fill: none; stroke: #333333; stroke-width: 2; stroke-linecap: round"/>
   </g>
   <g id="patch_17">
    <path d="M 745.142673 409.24156 
Q 734.940572 381.667905 725.514396 356.191378 
" clip-path="url(#p3fbcb911bd)" style="fill: none; stroke: #333333; stroke-width: 2; stroke-linecap: round"/>
    <path d="M 724.929145 361.525933 
L 725.514396 356.191378 
L 729.43089 359.860312 
" clip-path="url(#p3fbcb911bd)" style="fill: none; stroke: #333333; stroke-width: 2; stroke-linecap: round"/>
   </g>
   <g id="patch_18">
    <path d="M 334.283098 415.738056 
Q 261.979412 403.479336 214.633537 350.436988 
" clip-path="url(#p3fbcb911bd)" style="fill: none; stroke: #333333; stroke-width: 2; stroke-linecap: round"/>
    <path d="M 216.039436 355.616124 
L 214.633537 350.436988 
L 219.620385 352.419751 
" clip-path="url(#p3fbcb911bd)" style="fill: none; stroke: #333333; stroke-width: 2; stroke-linecap: round"/>
   </g>
   <g id="patch_19">
    <path d="M 358.396496 408.776252 
Q 361.739946 381.666795 364.809693 356.776592 
" clip-path="url(#p3fbcb911bd)" style="fill: none; stroke: #333333; stroke-width: 2; stroke-linecap: round"/>
    <path d="M 361.8402 361.246727 
L 364.809693 356.776592 
L 366.604106 361.834267 
" clip-path="url(#p3fbcb911bd)" style="fill: none; stroke: #333333; stroke-width: 2; stroke-linecap: round"/>
   </g>
   <g id="patch_20">
    <path d="M 379.10999 416.627232 
Q 461.813401 407.098627 518.785844 349.501409 
" clip-path="url(#p3fbcb911bd)" style="fill: none; stroke: #333333; stroke-width: 2; stroke-linecap: round"/>
    <path d="M 513.704005 351.226203 
L 518.785844 349.501409 
L 517.116576 354.601757 
" clip-path="url(#p3fbcb911bd)" style="fill: none; stroke: #333333; stroke-width: 2; stroke-linecap: round"/>
   </g>
   <g id="patch_21">
    <path d="M 530.97001 416.627232 
Q 448.266599 407.098627 391.294156 349.501409 
" clip-path="url(#p3fbcb911bd)" style="fill: none; stroke: #333333; stroke-width: 2; stroke-linecap: round"/>
    <path d="M 392.963424 354.601757 
L 391.294156 349.501409 
L 396.375995 351.226203 
" clip-path="url(#p3fbcb911bd)" style="fill: none; stroke: #333333; stroke-width: 2; stroke-linecap: round"/>
   </g>
   <g id="patch_22">
    <path d="M 551.683504 408.776252 
Q 548.340054 381.666795 545.270307 356.776592 
" clip-path="url(#p3fbcb911bd)" style="fill: none; stroke: #333333; stroke-width: 2; stroke-linecap: round"/>
    <path d="M 543.475894 361.834267 
L 545.270307 356.776592 
L 548.2398 361.246727 
" clip-path="url(#p3fbcb911bd)" style="fill: none; stroke: #333333; stroke-width: 2; stroke-linecap: round"/>
   </g>
   <g id="patch_23">
    <path d="M 575.796902 415.738056 
Q 648.100588 403.479336 695.446463 350.436988 
" clip-path="url(#p3fbcb911bd)" style="fill: none; stroke: #333333; stroke-width: 2; stroke-linecap: round"/>
    <path d="M 690.459615 352.419751 
L 695.446463 350.436988 
L 694.040564 355.616124 
" clip-path="url(#p3fbcb911bd)" style="fill: none; stroke: #333333; stroke-width: 2; stroke-linecap: round"/>
   </g>
   <g id="text_1">
    <!-- 0 -->
    <g style="fill: #111111" transform="translate(26.876 68.352327) scale(0.16 -0.16)">
     <defs>
      <path id="DejaVuSerif-30" d="M 2034 219 
Q 2513 219 2750 744 
Q 2988 1269 2988 2328 
Q 2988 3391 2750 3916 
Q 2513 4441 2034 4441 
Q 1556 4441 1318 3916 
Q 1081 3391 1081 2328 
Q 1081 1269 1318 744 
Q 1556 219 2034 219 
z
M 2034 -91 
Q 1275 -91 848 546 
Q 422 1184 422 2328 
Q 422 3475 848 4112 
Q 1275 4750 2034 4750 
Q 2797 4750 3222 4112 
Q 3647 3475 3647 2328 
Q 3647 1184 3222 546 
Q 2797 -91 2034 -91 
z
" transform="scale(0.015625)"/>
     </defs>
     <use xlink:href="#DejaVuSerif-30"/>
    </g>
   </g>
   <g id="text_2">
    <!-- 1 -->
    <g style="fill: #111111" transform="translate(26.876 159.132051) scale(0.16 -0.16)">
     <defs>
      <path id="DejaVuSerif-31" d="M 909 0 
L 909 331 
L 1722 331 
L 1722 4213 
L 781 3603 
L 781 4013 
L 1919 4750 
L 2350 4750 
L 2350 331 
L 3163 331 
L 3163 0 
L 909 0 
z
" transform="scale(0.015625)"/>
     </defs>
     <use xlink:href="#DejaVuSerif-31"/>
    </g>
   </g>
   <g id="text_3">
    <!-- 2 -->
    <g style="fill: #111111" transform="translate(26.876 249.911774) scale(0.16 -0.16)">
     <defs>
      <path id="DejaVuSerif-32" d="M 819 3553 
L 469 3553 
L 469 4384 
Q 803 4563 1142 4656 
Q 1481 4750 1806 4750 
Q 2534 4750 2956 4397 
Q 3378 4044 3378 3438 
Q 3378 2753 2422 1800 
Q 2347 1728 2309 1691 
L 1131 513 
L 3078 513 
L 3078 1088 
L 3444 1088 
L 3444 0 
L 434 0 
L 434 341 
L 1850 1753 
Q 2319 2222 2519 2614 
Q 2719 3006 2719 3438 
Q 2719 3909 2473 4175 
Q 2228 4441 1797 4441 
Q 1350 4441 1106 4219 
Q 863 3997 819 3553 
z
" transform="scale(0.015625)"/>
     </defs>
     <use xlink:href="#DejaVuSerif-32"/>
    </g>
   </g>
   <g id="text_4">
    <!-- 3 -->
    <g style="fill: #111111" transform="translate(26.876 340.691498) scale(0.16 -0.16)">
     <defs>
      <path id="DejaVuSerif-33" d="M 622 4469 
Q 988 4606 1323 4678 
Q 1659 4750 1953 4750 
Q 2638 4750 3022 4454 
Q 3406 4159 3406 3634 
Q 3406 3213 3140 2930 
Q 2875 2647 2388 2547 
Q 2963 2466 3280 2130 
Q 3597 1794 3597 1259 
Q 3597 606 3158 257 
Q 2719 -91 1894 -91 
Q 1528 -91 1179 -12 
Q 831 66 488 225 
L 488 1131 
L 838 1131 
Q 869 681 1141 450 
Q 1413 219 1906 219 
Q 2384 219 2661 495 
Q 2938 772 2938 1253 
Q 2938 1803 2653 2086 
Q 2369 2369 1819 2369 
L 1522 2369 
L 1522 2688 
L 1678 2688 
Q 2225 2688 2498 2914 
Q 2772 3141 2772 3597 
Q 2772 4006 2547 4223 
Q 2322 4441 1900 4441 
Q 1478 4441 1245 4241 
Q 1013 4041 972 3647 
L 622 3647 
L 622 4469 
z
" transform="scale(0.015625)"/>
     </defs>
     <use xlink:href="#DejaVuSerif-33"/>
    </g>
   </g>
   <g id="text_5">
    <!-- 4 -->
    <g style="fill: #111111" transform="translate(26.876 431.471221) scale(0.16 -0.16)">
     <defs>
      <path id="DejaVuSerif-34" d="M 2234 1581 
L 2234 4063 
L 641 1581 
L 2234 1581 
z
M 3609 0 
L 1484 0 
L 1484 331 
L 2234 331 
L 2234 1247 
L 197 1247 
L 197 1588 
L 2241 4750 
L 2859 4750 
L 2859 1581 
L 3750 1581 
L 3750 1247 
L 2859 1247 
L 2859 331 
L 3609 331 
L 3609 0 
z
" transform="scale(0.015625)"/>
     </defs>
     <use xlink:href="#DejaVuSerif-34"/>
    </g>
   </g>
   <g id="patch_24">
    <path d="M 421.0788 79.36988 
L 489.0012 79.36988 
Q 500.1972 79.36988 500.1972 72.561401 
L 500.1972 55.313253 
Q 500.1972 48.504774 489.0012 48.504774 
L 421.0788 48.504774 
Q 409.8828 48.504774 409.8828 55.313253 
L 409.8828 72.561401 
Q 409.8828 79.36988 421.0788 79.36988 
z
" clip-path="url(#p3fbcb911bd)" style="fill: #a7d7ff; stroke: #648199; stroke-width: 2; stroke-linejoin: miter"/>
   </g>
   <g id="patch_25">
    <path d="M 333.3768 170.149604 
L 401.2992 170.149604 
Q 412.4952 170.149604 412.4952 163.341124 
L 412.4952 146.092977 
Q 412.4952 139.284498 401.2992 139.284498 
L 333.3768 139.284498 
Q 322.1808 139.284498 322.1808 146.092977 
L 322.1808 163.341124 
Q 322.1808 170.149604 333.3768 170.149604 
z
" clip-path="url(#p3fbcb911bd)" style="fill: #7fe5de; stroke: #4c8985; stroke-width: 2; stroke-linejoin: miter"/>
   </g>
   <g id="patch_26">
    <path d="M 508.7808 170.149604 
L 576.7032 170.149604 
Q 587.8992 170.149604 587.8992 163.341124 
L 587.8992 146.092977 
Q 587.8992 139.284498 576.7032 139.284498 
L 508.7808 139.284498 
Q 497.5848 139.284498 497.5848 146.092977 
L 497.5848 163.341124 
Q 497.5848 170.149604 508.7808 170.149604 
z
" clip-path="url(#p3fbcb911bd)" style="fill: #7fe5de; stroke: #4c8985; stroke-width: 2; stroke-linejoin: miter"/>
   </g>
   <g id="patch_27">
    <path d="M 245.6748 260.929327 
L 313.5972 260.929327 
Q 324.7932 260.929327 324.7932 254.120848 
L 324.7932 236.8727 
Q 324.7932 230.064221 313.5972 230.064221 
L 245.6748 230.064221 
Q 234.4788 230.064221 234.4788 236.8727 
L 234.4788 254.120848 
Q 234.4788 260.929327 245.6748 260.929327 
z
" clip-path="url(#p3fbcb911bd)" style="fill: #c7a6ff; stroke: #776499; stroke-width: 2; stroke-linejoin: miter"/>
   </g>
   <g id="patch_28">
    <path d="M 421.0788 260.929327 
L 489.0012 260.929327 
Q 500.1972 260.929327 500.1972 254.120848 
L 500.1972 236.8727 
Q 500.1972 230.064221 489.0012 230.064221 
L 421.0788 230.064221 
Q 409.8828 230.064221 409.8828 236.8727 
L 409.8828 254.120848 
Q 409.8828 260.929327 421.0788 260.929327 
z
" clip-path="url(#p3fbcb911bd)" style="fill: #c7a6ff; stroke: #776499; stroke-width: 2; stroke-linejoin: miter"/>
   </g>
   <g id="patch_29">
    <path d="M 596.4828 260.929327 
L 664.4052 260.929327 
Q 675.6012 260.929327 675.6012 254.120848 
L 675.6012 236.8727 
Q 675.6012 230.064221 664.4052 230.064221 
L 596.4828 230.064221 
Q 585.2868 230.064221 585.2868 236.8727 
L 585.2868 254.120848 
Q 585.2868 260.929327 596.4828 260.929327 
z
" clip-path="url(#p3fbcb911bd)" style="fill: #c7a6ff; stroke: #776499; stroke-width: 2; stroke-linejoin: miter"/>
   </g>
   <g id="patch_30">
    <path d="M 157.9728 351.709051 
L 225.8952 351.709051 
Q 237.0912 351.709051 237.0912 344.900571 
L 237.0912 327.652424 
Q 237.0912 320.843945 225.8952 320.843945 
L 157.9728 320.843945 
Q 146.7768 320.843945 146.7768 327.652424 
L 146.7768 344.900571 
Q 146.7768 351.709051 157.9728 351.709051 
z
" clip-path="url(#p3fbcb911bd)" style="fill: #ffbe7a; stroke: #997249; stroke-width: 2; stroke-linejoin: miter"/>
   </g>
   <g id="patch_31">
    <path d="M 333.3768 351.709051 
L 401.2992 351.709051 
Q 412.4952 351.709051 412.4952 344.900571 
L 412.4952 327.652424 
Q 412.4952 320.843945 401.2992 320.843945 
L 333.3768 320.843945 
Q 322.1808 320.843945 322.1808 327.652424 
L 322.1808 344.900571 
Q 322.1808 351.709051 333.3768 351.709051 
z
" clip-path="url(#p3fbcb911bd)" style="fill: #ffbe7a; stroke: #997249; stroke-width: 2; stroke-linejoin: miter"/>
   </g>
   <g id="patch_32">
    <path d="M 508.7808 351.709051 
L 576.7032 351.709051 
Q 587.8992 351.709051 587.8992 344.900571 
L 587.8992 327.652424 
Q 587.8992 320.843945 576.7032 320.843945 
L 508.7808 320.843945 
Q 497.5848 320.843945 497.5848 327.652424 
L 497.5848 344.900571 
Q 497.5848 351.709051 508.7808 351.709051 
z
" clip-path="url(#p3fbcb911bd)" style="fill: #ffbe7a; stroke: #997249; stroke-width: 2; stroke-linejoin: miter"/>
   </g>
   <g id="patch_33">
    <path d="M 684.1848 351.709051 
L 752.1072 351.709051 
Q 763.3032 351.709051 763.3032 344.900571 
L 763.3032 327.652424 
Q 763.3032 320.843945 752.1072 320.843945 
L 684.1848 320.843945 
Q 672.9888 320.843945 672.9888 327.652424 
L 672.9888 344.900571 
Q 672.9888 351.709051 684.1848 351.709051 
z
" clip-path="url(#p3fbcb911bd)" style="fill: #ffbe7a; stroke: #997249; stroke-width: 2; stroke-linejoin: miter"/>
   </g>
   <g id="patch_34">
    <path d="M 116.9208 442.488774 
L 199.7712 442.488774 
Q 210.9672 442.488774 210.9672 435.680295 
L 210.9672 418.432147 
Q 210.9672 411.623668 199.7712 411.623668 
L 116.9208 411.623668 
Q 105.7248 411.623668 105.7248 418.432147 
L 105.7248 435.680295 
Q 105.7248 442.488774 116.9208 442.488774 
z
" clip-path="url(#p3fbcb911bd)" style="fill: #ff9db7; stroke: #995e6e; stroke-width: 2; stroke-linejoin: miter"/>
   </g>
   <g id="patch_35">
    <path d="M 314.7168 442.488774 
L 397.5672 442.488774 
Q 408.7632 442.488774 408.7632 435.680295 
L 408.7632 418.432147 
Q 408.7632 411.623668 397.5672 411.623668 
L 314.7168 411.623668 
Q 303.5208 411.623668 303.5208 418.432147 
L 303.5208 435.680295 
Q 303.5208 442.488774 314.7168 442.488774 
z
" clip-path="url(#p3fbcb911bd)" style="fill: #ff9db7; stroke: #995e6e; stroke-width: 2; stroke-linejoin: miter"/>
   </g>
   <g id="patch_36">
    <path d="M 512.5128 442.488774 
L 595.3632 442.488774 
Q 606.5592 442.488774 606.5592 435.680295 
L 606.5592 418.432147 
Q 606.5592 411.623668 595.3632 411.623668 
L 512.5128 411.623668 
Q 501.3168 411.623668 501.3168 418.432147 
L 501.3168 435.680295 
Q 501.3168 442.488774 512.5128 442.488774 
z
" clip-path="url(#p3fbcb911bd)" style="fill: #ff9db7; stroke: #995e6e; stroke-width: 2; stroke-linejoin: miter"/>
   </g>
   <g id="patch_37">
    <path d="M 710.3088 442.488774 
L 793.1592 442.488774 
Q 804.3552 442.488774 804.3552 435.680295 
L 804.3552 418.432147 
Q 804.3552 411.623668 793.1592 411.623668 
L 710.3088 411.623668 
Q 699.1128 411.623668 699.1128 418.432147 
L 699.1128 435.680295 
Q 699.1128 442.488774 710.3088 442.488774 
z
" clip-path="url(#p3fbcb911bd)" style="fill: #ff9db7; stroke: #995e6e; stroke-width: 2; stroke-linejoin: miter"/>
   </g>
   <g id="text_6">
    <!-- 00 -->
    <g transform="translate(444.86 68.352327) scale(0.16 -0.16)">
     <use xlink:href="#DejaVuSerif-30"/>
     <use xlink:href="#DejaVuSerif-30" transform="translate(63.623047 0)"/>
    </g>
   </g>
   <g id="text_7">
    <!-- 10 -->
    <g transform="translate(357.158 159.132051) scale(0.16 -0.16)">
     <use xlink:href="#DejaVuSerif-31"/>
     <use xlink:href="#DejaVuSerif-30" transform="translate(63.623047 0)"/>
    </g>
   </g>
   <g id="text_8">
    <!-- 01 -->
    <g transform="translate(532.562 159.132051) scale(0.16 -0.16)">
     <use xlink:href="#DejaVuSerif-30"/>
     <use xlink:href="#DejaVuSerif-31" transform="translate(63.623047 0)"/>
    </g>
   </g>
   <g id="text_9">
    <!-- 20 -->
    <g transform="translate(269.456 249.911774) scale(0.16 -0.16)">
     <use xlink:href="#DejaVuSerif-32"/>
     <use xlink:href="#DejaVuSerif-30" transform="translate(63.623047 0)"/>
    </g>
   </g>
   <g id="text_10">
    <!-- 11 -->
    <g transform="translate(444.86 249.911774) scale(0.16 -0.16)">
     <use xlink:href="#DejaVuSerif-31"/>
     <use xlink:href="#DejaVuSerif-31" transform="translate(63.623047 0)"/>
    </g>
   </g>
   <g id="text_11">
    <!-- 02 -->
    <g transform="translate(620.264 249.911774) scale(0.16 -0.16)">
     <use xlink:href="#DejaVuSerif-30"/>
     <use xlink:href="#DejaVuSerif-32" transform="translate(63.623047 0)"/>
    </g>
   </g>
   <g id="text_12">
    <!-- 30 -->
    <g transform="translate(181.754 340.691498) scale(0.16 -0.16)">
     <use xlink:href="#DejaVuSerif-33"/>
     <use xlink:href="#DejaVuSerif-30" transform="translate(63.623047 0)"/>
    </g>
   </g>
   <g id="text_13">
    <!-- 21 -->
    <g transform="translate(357.158 340.691498) scale(0.16 -0.16)">
     <use xlink:href="#DejaVuSerif-32"/>
     <use xlink:href="#DejaVuSerif-31" transform="translate(63.623047 0)"/>
    </g>
   </g>
   <g id="text_14">
    <!-- 12 -->
    <g transform="translate(532.562 340.691498) scale(0.16 -0.16)">
     <use xlink:href="#DejaVuSerif-31"/>
     <use xlink:href="#DejaVuSerif-32" transform="translate(63.623047 0)"/>
    </g>
   </g>
   <g id="text_15">
    <!-- 03 -->
    <g transform="translate(707.966 340.691498) scale(0.16 -0.16)">
     <use xlink:href="#DejaVuSerif-30"/>
     <use xlink:href="#DejaVuSerif-33" transform="translate(63.623047 0)"/>
    </g>
   </g>
   <g id="text_16">
    <!-- 30 -->
    <g transform="translate(148.166 431.471221) scale(0.16 -0.16)">
     <use xlink:href="#DejaVuSerif-33"/>
     <use xlink:href="#DejaVuSerif-30" transform="translate(63.623047 0)"/>
    </g>
   </g>
   <g id="text_17">
    <!-- 21 -->
    <g transform="translate(345.962 431.471221) scale(0.16 -0.16)">
     <use xlink:href="#DejaVuSerif-32"/>
     <use xlink:href="#DejaVuSerif-31" transform="translate(63.623047 0)"/>
    </g>
   </g>
   <g id="text_18">
    <!-- 12 -->
    <g transform="translate(543.758 431.471221) scale(0.16 -0.16)">
     <use xlink:href="#DejaVuSerif-31"/>
     <use xlink:href="#DejaVuSerif-32" transform="translate(63.623047 0)"/>
    </g>
   </g>
   <g id="text_19">
    <!-- 03 -->
    <g transform="translate(741.554 431.471221) scale(0.16 -0.16)">
     <use xlink:href="#DejaVuSerif-30"/>
     <use xlink:href="#DejaVuSerif-33" transform="translate(63.623047 0)"/>
    </g>
   </g>
   <g id="text_20">
    <g id="patch_38">
     <path d="M 407.814 108.400013 
L 414.564 108.400013 
Q 416.364 108.400013 416.364 106.600013 
L 416.364 92.082826 
Q 416.364 90.282826 414.564 90.282826 
L 407.814 90.282826 
Q 406.014 90.282826 406.014 92.082826 
L 406.014 106.600013 
Q 406.014 108.400013 407.814 108.400013 
z
" style="fill: #ffffff; opacity: 0.85"/>
    </g>
    <!-- $\delta$ -->
    <g style="fill: #333333" transform="translate(407.814 103.480482) scale(0.15 -0.15)">
     <defs>
      <path id="Cmmi10-b1" d="M 1281 -97 
Q 1059 -97 868 -14 
Q 678 69 536 225 
Q 394 381 325 573 
Q 256 766 256 991 
Q 256 1391 445 1767 
Q 634 2144 961 2419 
Q 1288 2694 1672 2791 
Q 1484 3138 1386 3389 
Q 1288 3641 1288 3903 
Q 1288 4097 1378 4245 
Q 1469 4394 1628 4478 
Q 1788 4563 1984 4563 
Q 2175 4563 2741 4434 
Q 2888 4400 2888 4263 
Q 2888 4156 2809 4068 
Q 2731 3981 2625 3981 
Q 2547 3981 2484 4017 
Q 2422 4053 2287 4143 
Q 2153 4234 2047 4282 
Q 1941 4331 1825 4331 
Q 1694 4331 1589 4251 
Q 1484 4172 1484 4044 
Q 1484 3841 1664 3577 
Q 1844 3313 2175 2900 
Q 2553 2419 2553 1838 
Q 2553 1550 2470 1215 
Q 2388 881 2230 584 
Q 2072 288 1826 95 
Q 1581 -97 1281 -97 
z
M 1294 78 
Q 1544 78 1723 337 
Q 1903 597 1995 955 
Q 2088 1313 2088 1556 
Q 2088 2034 1753 2631 
Q 1416 2538 1172 2238 
Q 928 1938 803 1547 
Q 678 1156 678 806 
Q 678 500 837 289 
Q 997 78 1294 78 
z
" transform="scale(0.015625)"/>
     </defs>
     <use xlink:href="#Cmmi10-b1" transform="translate(0 0.703125)"/>
    </g>
   </g>
   <g id="text_21">
    <g id="patch_39">
     <path d="M 495.516 119.29358 
L 502.266 119.29358 
Q 504.066 119.29358 504.066 117.49358 
L 504.066 102.976392 
Q 504.066 101.176392 502.266 101.176392 
L 495.516 101.176392 
Q 493.716 101.176392 493.716 102.976392 
L 493.716 117.49358 
Q 493.716 119.29358 495.516 119.29358 
z
" style="fill: #ffffff; opacity: 0.85"/>
    </g>
    <!-- $\delta$ -->
    <g style="fill: #333333" transform="translate(495.516 114.374049) scale(0.15 -0.15)">
     <use xlink:href="#Cmmi10-b1" transform="translate(0 0.703125)"/>
    </g>
   </g>
   <g id="text_22">
    <g id="patch_40">
     <path d="M 320.112 199.179737 
L 326.862 199.179737 
Q 328.662 199.179737 328.662 197.379737 
L 328.662 182.862549 
Q 328.662 181.062549 326.862 181.062549 
L 320.112 181.062549 
Q 318.312 181.062549 318.312 182.862549 
L 318.312 197.379737 
Q 318.312 199.179737 320.112 199.179737 
z
" style="fill: #ffffff; opacity: 0.85"/>
    </g>
    <!-- $\delta$ -->
    <g style="fill: #333333" transform="translate(320.112 194.260205) scale(0.15 -0.15)">
     <use xlink:href="#Cmmi10-b1" transform="translate(0 0.703125)"/>
    </g>
   </g>
   <g id="text_23">
    <g id="patch_41">
     <path d="M 487.266 201.371143 
L 510.516 201.371143 
Q 512.316 201.371143 512.316 199.571143 
L 512.316 180.671143 
Q 512.316 178.871143 510.516 178.871143 
L 487.266 178.871143 
Q 485.466 178.871143 485.466 180.671143 
L 485.466 199.571143 
Q 485.466 201.371143 487.266 201.371143 
z
" style="fill: #ffffff; opacity: 0.85"/>
    </g>
    <!-- $\delta\cdot\frac{1}{2}$ -->
    <g style="fill: #333333" transform="translate(487.266 193.421143) scale(0.15 -0.15)">
     <defs>
      <path id="Cmsy10-a2" d="M 538 1600 
Q 538 1691 584 1772 
Q 631 1853 714 1903 
Q 797 1953 891 1953 
Q 981 1953 1064 1903 
Q 1147 1853 1194 1772 
Q 1241 1691 1241 1600 
Q 1241 1456 1139 1351 
Q 1038 1247 891 1247 
Q 747 1247 642 1351 
Q 538 1456 538 1600 
z
" transform="scale(0.015625)"/>
      <path id="Cmr10-31" d="M 594 0 
L 594 225 
Q 1394 225 1394 428 
L 1394 3788 
Q 1063 3628 556 3628 
L 556 3853 
Q 1341 3853 1741 4263 
L 1831 4263 
Q 1853 4263 1873 4245 
Q 1894 4228 1894 4206 
L 1894 428 
Q 1894 225 2694 225 
L 2694 0 
L 594 0 
z
" transform="scale(0.015625)"/>
      <path id="Cmr10-32" d="M 319 0 
L 319 172 
Q 319 188 331 206 
L 1325 1306 
Q 1550 1550 1690 1715 
Q 1831 1881 1968 2097 
Q 2106 2313 2186 2536 
Q 2266 2759 2266 3009 
Q 2266 3272 2169 3511 
Q 2072 3750 1880 3894 
Q 1688 4038 1416 4038 
Q 1138 4038 916 3870 
Q 694 3703 603 3438 
Q 628 3444 672 3444 
Q 816 3444 917 3347 
Q 1019 3250 1019 3097 
Q 1019 2950 917 2848 
Q 816 2747 672 2747 
Q 522 2747 420 2851 
Q 319 2956 319 3097 
Q 319 3338 409 3548 
Q 500 3759 670 3923 
Q 841 4088 1055 4175 
Q 1269 4263 1509 4263 
Q 1875 4263 2190 4108 
Q 2506 3953 2690 3670 
Q 2875 3388 2875 3009 
Q 2875 2731 2753 2481 
Q 2631 2231 2440 2026 
Q 2250 1822 1953 1562 
Q 1656 1303 1563 1216 
L 838 519 
L 1453 519 
Q 1906 519 2211 526 
Q 2516 534 2534 550 
Q 2609 631 2688 1141 
L 2875 1141 
L 2694 0 
L 319 0 
z
" transform="scale(0.015625)"/>
     </defs>
     <use xlink:href="#Cmmi10-b1" transform="translate(0 0.873437)"/>
     <use xlink:href="#Cmsy10-a2" transform="translate(61.943359 0.873437)"/>
     <use xlink:href="#Cmr10-31" transform="translate(107.1875 38.373438) scale(0.7)"/>
     <use xlink:href="#Cmr10-32" transform="translate(107.1875 -39.503125) scale(0.7)"/>
     <path d="M 107.1875 13.373437 
L 107.1875 19.623437 
L 142.1875 19.623437 
L 142.1875 13.373437 
L 107.1875 13.373437 
z
"/>
    </g>
   </g>
   <g id="text_24">
    <g id="patch_42">
     <path d="M 399.564 212.26471 
L 422.814 212.26471 
Q 424.614 212.26471 424.614 210.46471 
L 424.614 191.56471 
Q 424.614 189.76471 422.814 189.76471 
L 399.564 189.76471 
Q 397.764 189.76471 397.764 191.56471 
L 397.764 210.46471 
Q 397.764 212.26471 399.564 212.26471 
z
" style="fill: #ffffff; opacity: 0.85"/>
    </g>
    <!-- $\delta\cdot\frac{1}{2}$ -->
    <g style="fill: #333333" transform="translate(399.564 204.31471) scale(0.15 -0.15)">
     <use xlink:href="#Cmmi10-b1" transform="translate(0 0.873437)"/>
     <use xlink:href="#Cmsy10-a2" transform="translate(61.943359 0.873437)"/>
     <use xlink:href="#Cmr10-31" transform="translate(107.1875 38.373438) scale(0.7)"/>
     <use xlink:href="#Cmr10-32" transform="translate(107.1875 -39.503125) scale(0.7)"/>
     <path d="M 107.1875 13.373437 
L 107.1875 19.623437 
L 142.1875 19.623437 
L 142.1875 13.373437 
L 107.1875 13.373437 
z
"/>
    </g>
   </g>
   <g id="text_25">
    <g id="patch_43">
     <path d="M 583.218 210.073303 
L 589.968 210.073303 
Q 591.768 210.073303 591.768 208.273303 
L 591.768 193.756116 
Q 591.768 191.956116 589.968 191.956116 
L 583.218 191.956116 
Q 581.418 191.956116 581.418 193.756116 
L 581.418 208.273303 
Q 581.418 210.073303 583.218 210.073303 
z
" style="fill: #ffffff; opacity: 0.85"/>
    </g>
    <!-- $\delta$ -->
    <g style="fill: #333333" transform="translate(583.218 205.153772) scale(0.15 -0.15)">
     <use xlink:href="#Cmmi10-b1" transform="translate(0 0.703125)"/>
    </g>
   </g>
   <g id="text_26">
    <g id="patch_44">
     <path d="M 232.41 289.95946 
L 239.16 289.95946 
Q 240.96 289.95946 240.96 288.15946 
L 240.96 273.642273 
Q 240.96 271.842273 239.16 271.842273 
L 232.41 271.842273 
Q 230.61 271.842273 230.61 273.642273 
L 230.61 288.15946 
Q 230.61 289.95946 232.41 289.95946 
z
" style="fill: #ffffff; opacity: 0.85"/>
    </g>
    <!-- $\delta$ -->
    <g style="fill: #333333" transform="translate(232.41 285.039929) scale(0.15 -0.15)">
     <use xlink:href="#Cmmi10-b1" transform="translate(0 0.703125)"/>
    </g>
   </g>
   <g id="text_27">
    <g id="patch_45">
     <path d="M 399.564 292.225866 
L 422.814 292.225866 
Q 424.614 292.225866 424.614 290.425866 
L 424.614 271.375866 
Q 424.614 269.575866 422.814 269.575866 
L 399.564 269.575866 
Q 397.764 269.575866 397.764 271.375866 
L 397.764 290.425866 
Q 397.764 292.225866 399.564 292.225866 
z
" style="fill: #ffffff; opacity: 0.85"/>
    </g>
    <!-- $\delta\cdot\frac{2}{3}$ -->
    <g style="fill: #333333" transform="translate(399.564 284.125866) scale(0.15 -0.15)">
     <defs>
      <path id="Cmr10-33" d="M 609 494 
Q 759 275 1012 169 
Q 1266 63 1556 63 
Q 1928 63 2084 380 
Q 2241 697 2241 1100 
Q 2241 1281 2208 1462 
Q 2175 1644 2097 1800 
Q 2019 1956 1883 2050 
Q 1747 2144 1550 2144 
L 1125 2144 
Q 1069 2144 1069 2203 
L 1069 2259 
Q 1069 2309 1125 2309 
L 1478 2338 
Q 1703 2338 1851 2506 
Q 2000 2675 2069 2917 
Q 2138 3159 2138 3378 
Q 2138 3684 1994 3881 
Q 1850 4078 1556 4078 
Q 1313 4078 1091 3986 
Q 869 3894 738 3706 
Q 750 3709 759 3711 
Q 769 3713 781 3713 
Q 925 3713 1022 3613 
Q 1119 3513 1119 3372 
Q 1119 3234 1022 3134 
Q 925 3034 781 3034 
Q 641 3034 541 3134 
Q 441 3234 441 3372 
Q 441 3647 606 3850 
Q 772 4053 1033 4158 
Q 1294 4263 1556 4263 
Q 1750 4263 1965 4205 
Q 2181 4147 2356 4039 
Q 2531 3931 2642 3762 
Q 2753 3594 2753 3378 
Q 2753 3109 2633 2881 
Q 2513 2653 2303 2487 
Q 2094 2322 1844 2241 
Q 2122 2188 2372 2031 
Q 2622 1875 2773 1631 
Q 2925 1388 2925 1106 
Q 2925 753 2731 467 
Q 2538 181 2222 20 
Q 1906 -141 1556 -141 
Q 1256 -141 954 -26 
Q 653 88 461 316 
Q 269 544 269 863 
Q 269 1022 375 1128 
Q 481 1234 641 1234 
Q 744 1234 830 1186 
Q 916 1138 964 1050 
Q 1013 963 1013 863 
Q 1013 706 903 600 
Q 794 494 641 494 
L 609 494 
z
" transform="scale(0.015625)"/>
     </defs>
     <use xlink:href="#Cmmi10-b1" transform="translate(0 0.873437)"/>
     <use xlink:href="#Cmsy10-a2" transform="translate(61.943359 0.873437)"/>
     <use xlink:href="#Cmr10-32" transform="translate(107.1875 38.373438) scale(0.7)"/>
     <use xlink:href="#Cmr10-33" transform="translate(107.1875 -39.503125) scale(0.7)"/>
     <path d="M 107.1875 13.373437 
L 107.1875 19.623437 
L 142.1875 19.623437 
L 142.1875 13.373437 
L 107.1875 13.373437 
z
"/>
    </g>
   </g>
   <g id="text_28">
    <g id="patch_46">
     <path d="M 311.862 303.119433 
L 335.112 303.119433 
Q 336.912 303.119433 336.912 301.319433 
L 336.912 282.269433 
Q 336.912 280.469433 335.112 280.469433 
L 311.862 280.469433 
Q 310.062 280.469433 310.062 282.269433 
L 310.062 301.319433 
Q 310.062 303.119433 311.862 303.119433 
z
" style="fill: #ffffff; opacity: 0.85"/>
    </g>
    <!-- $\delta\cdot\frac{1}{3}$ -->
    <g style="fill: #333333" transform="translate(311.862 295.019433) scale(0.15 -0.15)">
     <use xlink:href="#Cmmi10-b1" transform="translate(0 0.873437)"/>
     <use xlink:href="#Cmsy10-a2" transform="translate(61.943359 0.873437)"/>
     <use xlink:href="#Cmr10-31" transform="translate(107.1875 38.373438) scale(0.7)"/>
     <use xlink:href="#Cmr10-33" transform="translate(107.1875 -39.503125) scale(0.7)"/>
     <path d="M 107.1875 13.373437 
L 107.1875 19.623437 
L 142.1875 19.623437 
L 142.1875 13.373437 
L 107.1875 13.373437 
z
"/>
    </g>
   </g>
   <g id="text_29">
    <g id="patch_47">
     <path d="M 574.968 292.225866 
L 598.218 292.225866 
Q 600.018 292.225866 600.018 290.425866 
L 600.018 271.375866 
Q 600.018 269.575866 598.218 269.575866 
L 574.968 269.575866 
Q 573.168 269.575866 573.168 271.375866 
L 573.168 290.425866 
Q 573.168 292.225866 574.968 292.225866 
z
" style="fill: #ffffff; opacity: 0.85"/>
    </g>
    <!-- $\delta\cdot\frac{1}{3}$ -->
    <g style="fill: #333333" transform="translate(574.968 284.125866) scale(0.15 -0.15)">
     <use xlink:href="#Cmmi10-b1" transform="translate(0 0.873437)"/>
     <use xlink:href="#Cmsy10-a2" transform="translate(61.943359 0.873437)"/>
     <use xlink:href="#Cmr10-31" transform="translate(107.1875 38.373438) scale(0.7)"/>
     <use xlink:href="#Cmr10-33" transform="translate(107.1875 -39.503125) scale(0.7)"/>
     <path d="M 107.1875 13.373437 
L 107.1875 19.623437 
L 142.1875 19.623437 
L 142.1875 13.373437 
L 107.1875 13.373437 
z
"/>
    </g>
   </g>
   <g id="text_30">
    <g id="patch_48">
     <path d="M 487.266 303.119433 
L 510.516 303.119433 
Q 512.316 303.119433 512.316 301.319433 
L 512.316 282.269433 
Q 512.316 280.469433 510.516 280.469433 
L 487.266 280.469433 
Q 485.466 280.469433 485.466 282.269433 
L 485.466 301.319433 
Q 485.466 303.119433 487.266 303.119433 
z
" style="fill: #ffffff; opacity: 0.85"/>
    </g>
    <!-- $\delta\cdot\frac{2}{3}$ -->
    <g style="fill: #333333" transform="translate(487.266 295.019433) scale(0.15 -0.15)">
     <use xlink:href="#Cmmi10-b1" transform="translate(0 0.873437)"/>
     <use xlink:href="#Cmsy10-a2" transform="translate(61.943359 0.873437)"/>
     <use xlink:href="#Cmr10-32" transform="translate(107.1875 38.373438) scale(0.7)"/>
     <use xlink:href="#Cmr10-33" transform="translate(107.1875 -39.503125) scale(0.7)"/>
     <path d="M 107.1875 13.373437 
L 107.1875 19.623437 
L 142.1875 19.623437 
L 142.1875 13.373437 
L 107.1875 13.373437 
z
"/>
    </g>
   </g>
   <g id="text_31">
    <g id="patch_49">
     <path d="M 670.92 300.853027 
L 677.67 300.853027 
Q 679.47 300.853027 679.47 299.053027 
L 679.47 284.535839 
Q 679.47 282.735839 677.67 282.735839 
L 670.92 282.735839 
Q 669.12 282.735839 669.12 284.535839 
L 669.12 299.053027 
Q 669.12 300.853027 670.92 300.853027 
z
" style="fill: #ffffff; opacity: 0.85"/>
    </g>
    <!-- $\delta$ -->
    <g style="fill: #333333" transform="translate(670.92 295.933496) scale(0.15 -0.15)">
     <use xlink:href="#Cmmi10-b1" transform="translate(0 0.703125)"/>
    </g>
   </g>
   <g id="text_32">
    <g id="patch_50">
     <path d="M 109.71 371.617305 
L 128.61 371.617305 
Q 130.85 371.617305 130.85 369.377305 
L 130.85 355.82793 
Q 130.85 353.58793 128.61 353.58793 
L 109.71 353.58793 
Q 107.47 353.58793 107.47 355.82793 
L 107.47 369.377305 
Q 107.47 371.617305 109.71 371.617305 
z
" style="fill: #ffffff; opacity: 0.85"/>
    </g>
    <!-- $\delta y_1$ -->
    <g style="fill: #333333" transform="translate(109.71 366.437305) scale(0.14 -0.14)">
     <defs>
      <path id="Cmmi10-79" d="M 538 -916 
Q 672 -1147 1006 -1147 
Q 1309 -1147 1531 -934 
Q 1753 -722 1889 -420 
Q 2025 -119 2100 197 
Q 1816 -72 1484 -72 
Q 1231 -72 1053 15 
Q 875 103 776 276 
Q 678 450 678 697 
Q 678 906 734 1126 
Q 791 1347 892 1617 
Q 994 1888 1069 2088 
Q 1153 2322 1153 2472 
Q 1153 2663 1013 2663 
Q 759 2663 595 2402 
Q 431 2141 353 1819 
Q 341 1778 300 1778 
L 225 1778 
Q 172 1778 172 1838 
L 172 1856 
Q 275 2238 487 2533 
Q 700 2828 1025 2828 
Q 1253 2828 1411 2678 
Q 1569 2528 1569 2297 
Q 1569 2178 1516 2047 
Q 1488 1969 1388 1706 
Q 1288 1444 1234 1272 
Q 1181 1100 1147 934 
Q 1113 769 1113 603 
Q 1113 391 1203 244 
Q 1294 97 1491 97 
Q 1888 97 2203 581 
L 2688 2553 
Q 2709 2638 2787 2698 
Q 2866 2759 2956 2759 
Q 3034 2759 3092 2709 
Q 3150 2659 3150 2578 
Q 3150 2541 3144 2528 
L 2509 -19 
Q 2425 -347 2200 -647 
Q 1975 -947 1658 -1130 
Q 1341 -1313 997 -1313 
Q 831 -1313 668 -1248 
Q 506 -1184 406 -1056 
Q 306 -928 306 -756 
Q 306 -581 409 -453 
Q 513 -325 684 -325 
Q 788 -325 858 -389 
Q 928 -453 928 -556 
Q 928 -703 818 -812 
Q 709 -922 563 -922 
Q 556 -919 550 -917 
Q 544 -916 538 -916 
z
" transform="scale(0.015625)"/>
     </defs>
     <use xlink:href="#Cmmi10-b1" transform="translate(0 0.703125)"/>
     <use xlink:href="#Cmmi10-79" transform="translate(44.384766 0.703125)"/>
     <use xlink:href="#Cmr10-31" transform="translate(93.408203 -16.303125) scale(0.7)"/>
    </g>
   </g>
   <g id="text_33">
    <g id="patch_51">
     <path d="M 339.228 377.971886 
L 358.128 377.971886 
Q 360.368 377.971886 360.368 375.731886 
L 360.368 362.182511 
Q 360.368 359.942511 358.128 359.942511 
L 339.228 359.942511 
Q 336.988 359.942511 336.988 362.182511 
L 336.988 375.731886 
Q 336.988 377.971886 339.228 377.971886 
z
" style="fill: #ffffff; opacity: 0.85"/>
    </g>
    <!-- $\delta y_2$ -->
    <g style="fill: #333333" transform="translate(339.228 372.791886) scale(0.14 -0.14)">
     <use xlink:href="#Cmmi10-b1" transform="translate(0 0.703125)"/>
     <use xlink:href="#Cmmi10-79" transform="translate(44.384766 0.703125)"/>
     <use xlink:href="#Cmr10-32" transform="translate(93.408203 -16.303125) scale(0.7)"/>
    </g>
   </g>
   <g id="text_34">
    <g id="patch_52">
     <path d="M 544.488 374.794595 
L 563.388 374.794595 
Q 565.628 374.794595 565.628 372.554595 
L 565.628 359.00522 
Q 565.628 356.76522 563.388 356.76522 
L 544.488 356.76522 
Q 542.248 356.76522 542.248 359.00522 
L 542.248 372.554595 
Q 542.248 374.794595 544.488 374.794595 
z
" style="fill: #ffffff; opacity: 0.85"/>
    </g>
    <!-- $\delta y_1$ -->
    <g style="fill: #333333" transform="translate(544.488 369.614595) scale(0.14 -0.14)">
     <use xlink:href="#Cmmi10-b1" transform="translate(0 0.703125)"/>
     <use xlink:href="#Cmmi10-79" transform="translate(44.384766 0.703125)"/>
     <use xlink:href="#Cmr10-31" transform="translate(93.408203 -16.303125) scale(0.7)"/>
    </g>
   </g>
   <g id="text_35">
    <g id="patch_53">
     <path d="M 777.738 373.432899 
L 796.638 373.432899 
Q 798.878 373.432899 798.878 371.192899 
L 798.878 357.643524 
Q 798.878 355.403524 796.638 355.403524 
L 777.738 355.403524 
Q 775.498 355.403524 775.498 357.643524 
L 775.498 371.192899 
Q 775.498 373.432899 777.738 373.432899 
z
" style="fill: #ffffff; opacity: 0.85"/>
    </g>
    <!-- $\delta y_2$ -->
    <g style="fill: #333333" transform="translate(777.738 368.252899) scale(0.14 -0.14)">
     <use xlink:href="#Cmmi10-b1" transform="translate(0 0.703125)"/>
     <use xlink:href="#Cmmi10-79" transform="translate(44.384766 0.703125)"/>
     <use xlink:href="#Cmr10-32" transform="translate(93.408203 -16.303125) scale(0.7)"/>
    </g>
   </g>
   <g id="text_36">
    <g id="patch_54">
     <path d="M 185.91 400.966535 
L 220.35 400.966535 
Q 222.59 400.966535 222.59 398.726535 
L 222.59 380.946535 
Q 222.59 378.706535 220.35 378.706535 
L 185.91 378.706535 
Q 183.67 378.706535 183.67 380.946535 
L 183.67 398.726535 
Q 183.67 400.966535 185.91 400.966535 
z
" style="fill: #ffffff; opacity: 0.85"/>
    </g>
    <!-- $\delta\cdot\frac{1}{3}y_1$ -->
    <g style="fill: #333333" transform="translate(185.91 392.846535) scale(0.14 -0.14)">
     <use xlink:href="#Cmmi10-b1" transform="translate(0 0.873437)"/>
     <use xlink:href="#Cmsy10-a2" transform="translate(61.943359 0.873437)"/>
     <use xlink:href="#Cmr10-31" transform="translate(107.1875 38.373438) scale(0.7)"/>
     <use xlink:href="#Cmr10-33" transform="translate(107.1875 -39.503125) scale(0.7)"/>
     <use xlink:href="#Cmmi10-79" transform="translate(154.6875 0.873437)"/>
     <use xlink:href="#Cmr10-31" transform="translate(203.710938 -16.132812) scale(0.7)"/>
     <path d="M 107.1875 13.373437 
L 107.1875 19.623437 
L 142.1875 19.623437 
L 142.1875 13.373437 
L 107.1875 13.373437 
z
"/>
    </g>
   </g>
   <g id="text_37">
    <g id="patch_55">
     <path d="M 329.94 408.454507 
L 393.54 408.454507 
Q 395.46 408.454507 395.46 406.534507 
L 395.46 391.294507 
Q 395.46 389.374507 393.54 389.374507 
L 329.94 389.374507 
Q 328.02 389.374507 328.02 391.294507 
L 328.02 406.534507 
Q 328.02 408.454507 329.94 408.454507 
z
" style="fill: #ffffff; opacity: 0.85"/>
    </g>
    <!-- $\delta\left(\frac{2}{3}y_1+\frac{1}{3}y_2\right)$ -->
    <g style="fill: #333333" transform="translate(329.94 401.494507) scale(0.12 -0.12)">
     <defs>
      <path id="Cmex10-a1" d="M 2503 -7406 
Q 1713 -6744 1342 -5734 
Q 972 -4725 972 -3584 
Q 972 -2434 1342 -1423 
Q 1713 -413 2503 244 
Q 2503 256 2534 256 
L 2613 256 
Q 2631 256 2647 236 
Q 2663 216 2663 197 
Q 2663 172 2650 159 
Q 2303 -200 2067 -640 
Q 1831 -1081 1695 -1554 
Q 1559 -2028 1500 -2543 
Q 1441 -3059 1441 -3591 
Q 1441 -6072 2650 -7322 
Q 2663 -7334 2663 -7359 
Q 2663 -7378 2645 -7398 
Q 2628 -7419 2613 -7419 
L 2534 -7419 
Q 2503 -7419 2503 -7406 
z
" transform="scale(0.015625)"/>
      <path id="Cmr10-2b" d="M 481 1472 
Q 428 1472 393 1512 
Q 359 1553 359 1600 
Q 359 1647 393 1687 
Q 428 1728 481 1728 
L 2363 1728 
L 2363 3616 
Q 2363 3666 2400 3698 
Q 2438 3731 2491 3731 
Q 2538 3731 2578 3698 
Q 2619 3666 2619 3616 
L 2619 1728 
L 4500 1728 
Q 4547 1728 4581 1687 
Q 4616 1647 4616 1600 
Q 4616 1553 4581 1512 
Q 4547 1472 4500 1472 
L 2619 1472 
L 2619 -416 
Q 2619 -466 2578 -498 
Q 2538 -531 2491 -531 
Q 2438 -531 2400 -498 
Q 2363 -466 2363 -416 
L 2363 1472 
L 481 1472 
z
" transform="scale(0.015625)"/>
      <path id="Cmex10-a2" d="M 319 -7419 
Q 263 -7419 263 -7359 
Q 263 -7334 275 -7322 
Q 734 -6844 1001 -6236 
Q 1269 -5628 1376 -4961 
Q 1484 -4294 1484 -3578 
Q 1484 -1091 275 159 
Q 263 172 263 197 
Q 263 256 319 256 
L 397 256 
Q 416 256 428 244 
Q 1216 -413 1584 -1423 
Q 1953 -2434 1953 -3584 
Q 1953 -4725 1586 -5734 
Q 1219 -6744 428 -7406 
Q 416 -7419 397 -7419 
L 319 -7419 
z
" transform="scale(0.015625)"/>
     </defs>
     <use xlink:href="#Cmmi10-b1" transform="translate(0 0.873437)"/>
     <use xlink:href="#Cmex10-a1" transform="translate(44.384766 80.782813) scale(1.051062)"/>
     <use xlink:href="#Cmr10-32" transform="translate(92.518524 38.373438) scale(0.7)"/>
     <use xlink:href="#Cmr10-33" transform="translate(92.518524 -39.503125) scale(0.7)"/>
     <use xlink:href="#Cmmi10-79" transform="translate(140.018524 0.873437)"/>
     <use xlink:href="#Cmr10-31" transform="translate(189.041962 -16.132812) scale(0.7)"/>
     <use xlink:href="#Cmr10-2b" transform="translate(247.977899 0.873437)"/>
     <use xlink:href="#Cmr10-31" transform="translate(343.22204 38.373438) scale(0.7)"/>
     <use xlink:href="#Cmr10-33" transform="translate(343.22204 -39.503125) scale(0.7)"/>
     <use xlink:href="#Cmmi10-79" transform="translate(390.72204 0.873437)"/>
     <use xlink:href="#Cmr10-32" transform="translate(439.745477 -16.132812) scale(0.7)"/>
     <use xlink:href="#Cmex10-a2" transform="translate(481.122821 80.782813) scale(1.051062)"/>
     <path d="M 92.518524 13.373437 
L 92.518524 19.623437 
L 127.518524 19.623437 
L 127.518524 13.373437 
L 92.518524 13.373437 
z
"/>
     <path d="M 343.22204 13.373437 
L 343.22204 19.623437 
L 378.22204 19.623437 
L 378.22204 13.373437 
L 343.22204 13.373437 
z
"/>
    </g>
   </g>
   <g id="text_38">
    <g id="patch_56">
     <path d="M 510.594 398.243143 
L 545.034 398.243143 
Q 547.274 398.243143 547.274 396.003143 
L 547.274 378.223143 
Q 547.274 375.983143 545.034 375.983143 
L 510.594 375.983143 
Q 508.354 375.983143 508.354 378.223143 
L 508.354 396.003143 
Q 508.354 398.243143 510.594 398.243143 
z
" style="fill: #ffffff; opacity: 0.85"/>
    </g>
    <!-- $\delta\cdot\frac{2}{3}y_2$ -->
    <g style="fill: #333333" transform="translate(510.594 390.123143) scale(0.14 -0.14)">
     <use xlink:href="#Cmmi10-b1" transform="translate(0 0.873437)"/>
     <use xlink:href="#Cmsy10-a2" transform="translate(61.943359 0.873437)"/>
     <use xlink:href="#Cmr10-32" transform="translate(107.1875 38.373438) scale(0.7)"/>
     <use xlink:href="#Cmr10-33" transform="translate(107.1875 -39.503125) scale(0.7)"/>
     <use xlink:href="#Cmmi10-79" transform="translate(154.6875 0.873437)"/>
     <use xlink:href="#Cmr10-32" transform="translate(203.710938 -16.132812) scale(0.7)"/>
     <path d="M 107.1875 13.373437 
L 107.1875 19.623437 
L 142.1875 19.623437 
L 142.1875 13.373437 
L 107.1875 13.373437 
z
"/>
    </g>
   </g>
   <g id="text_39">
    <g id="patch_57">
     <path d="M 365.046 384.626184 
L 399.486 384.626184 
Q 401.726 384.626184 401.726 382.386184 
L 401.726 364.606184 
Q 401.726 362.366184 399.486 362.366184 
L 365.046 362.366184 
Q 362.806 362.366184 362.806 364.606184 
L 362.806 382.386184 
Q 362.806 384.626184 365.046 384.626184 
z
" style="fill: #ffffff; opacity: 0.85"/>
    </g>
    <!-- $\delta\cdot\frac{2}{3}y_1$ -->
    <g style="fill: #333333" transform="translate(365.046 376.506184) scale(0.14 -0.14)">
     <use xlink:href="#Cmmi10-b1" transform="translate(0 0.873437)"/>
     <use xlink:href="#Cmsy10-a2" transform="translate(61.943359 0.873437)"/>
     <use xlink:href="#Cmr10-32" transform="translate(107.1875 38.373438) scale(0.7)"/>
     <use xlink:href="#Cmr10-33" transform="translate(107.1875 -39.503125) scale(0.7)"/>
     <use xlink:href="#Cmmi10-79" transform="translate(154.6875 0.873437)"/>
     <use xlink:href="#Cmr10-31" transform="translate(203.710938 -16.132812) scale(0.7)"/>
     <path d="M 107.1875 13.373437 
L 107.1875 19.623437 
L 142.1875 19.623437 
L 142.1875 13.373437 
L 107.1875 13.373437 
z
"/>
    </g>
   </g>
   <g id="text_40">
    <g id="patch_58">
     <path d="M 516.54 372.142618 
L 580.14 372.142618 
Q 582.06 372.142618 582.06 370.222618 
L 582.06 354.982618 
Q 582.06 353.062618 580.14 353.062618 
L 516.54 353.062618 
Q 514.62 353.062618 514.62 354.982618 
L 514.62 370.222618 
Q 514.62 372.142618 516.54 372.142618 
z
" style="fill: #ffffff; opacity: 0.85"/>
    </g>
    <!-- $\delta\left(\frac{1}{3}y_1+\frac{2}{3}y_2\right)$ -->
    <g style="fill: #333333" transform="translate(516.54 365.182618) scale(0.12 -0.12)">
     <use xlink:href="#Cmmi10-b1" transform="translate(0 0.873437)"/>
     <use xlink:href="#Cmex10-a1" transform="translate(44.384766 80.782813) scale(1.051062)"/>
     <use xlink:href="#Cmr10-31" transform="translate(92.518524 38.373438) scale(0.7)"/>
     <use xlink:href="#Cmr10-33" transform="translate(92.518524 -39.503125) scale(0.7)"/>
     <use xlink:href="#Cmmi10-79" transform="translate(140.018524 0.873437)"/>
     <use xlink:href="#Cmr10-31" transform="translate(189.041962 -16.132812) scale(0.7)"/>
     <use xlink:href="#Cmr10-2b" transform="translate(247.977899 0.873437)"/>
     <use xlink:href="#Cmr10-32" transform="translate(343.22204 38.373438) scale(0.7)"/>
     <use xlink:href="#Cmr10-33" transform="translate(343.22204 -39.503125) scale(0.7)"/>
     <use xlink:href="#Cmmi10-79" transform="translate(390.72204 0.873437)"/>
     <use xlink:href="#Cmr10-32" transform="translate(439.745477 -16.132812) scale(0.7)"/>
     <use xlink:href="#Cmex10-a2" transform="translate(481.122821 80.782813) scale(1.051062)"/>
     <path d="M 92.518524 13.373437 
L 92.518524 19.623437 
L 127.518524 19.623437 
L 127.518524 13.373437 
L 92.518524 13.373437 
z
"/>
     <path d="M 343.22204 13.373437 
L 343.22204 19.623437 
L 378.22204 19.623437 
L 378.22204 13.373437 
L 343.22204 13.373437 
z
"/>
    </g>
   </g>
   <g id="text_41">
    <g id="patch_59">
     <path d="M 704.658 402.782129 
L 739.098 402.782129 
Q 741.338 402.782129 741.338 400.542129 
L 741.338 382.762129 
Q 741.338 380.522129 739.098 380.522129 
L 704.658 380.522129 
Q 702.418 380.522129 702.418 382.762129 
L 702.418 400.542129 
Q 702.418 402.782129 704.658 402.782129 
z
" style="fill: #ffffff; opacity: 0.85"/>
    </g>
    <!-- $\delta\cdot\frac{1}{3}y_2$ -->
    <g style="fill: #333333" transform="translate(704.658 394.662129) scale(0.14 -0.14)">
     <use xlink:href="#Cmmi10-b1" transform="translate(0 0.873437)"/>
     <use xlink:href="#Cmsy10-a2" transform="translate(61.943359 0.873437)"/>
     <use xlink:href="#Cmr10-31" transform="translate(107.1875 38.373438) scale(0.7)"/>
     <use xlink:href="#Cmr10-33" transform="translate(107.1875 -39.503125) scale(0.7)"/>
     <use xlink:href="#Cmmi10-79" transform="translate(154.6875 0.873437)"/>
     <use xlink:href="#Cmr10-32" transform="translate(203.710938 -16.132812) scale(0.7)"/>
     <path d="M 107.1875 13.373437 
L 107.1875 19.623437 
L 142.1875 19.623437 
L 142.1875 13.373437 
L 107.1875 13.373437 
z
"/>
    </g>
   </g>
  </g>
 </g>
 <defs>
  <clipPath id="p3fbcb911bd">
   <rect x="7.2" y="7.2" width="895.68" height="492.48"/>
  </clipPath>
 </defs>
</svg>
